<svg width="65" height="65" viewBox="0 0 65 65" fill="none" xmlns="http://www.w3.org/2000/svg">
<rect width="64" height="64" rx="32" fill="#A0AEC0"/>
<path fill-rule="evenodd" clip-rule="evenodd" d="M19.4188 20.3951C19.4188 13.5484 25.0496 8 31.9979 8C38.9462 8 44.5812 13.5484 44.5812 20.3951C44.5812 27.2459 38.9462 32.7943 31.9979 32.7943C25.0496 32.7943 19.4188 27.2459 19.4188 20.3951ZM32.0897 58.6667C40.3969 58.6667 47.9147 55.3895 53.3334 50.1174V46.3773C53.3334 41.8548 49.5148 38.1844 44.8001 38.1844H19.2001C14.4854 38.1844 10.6667 41.8548 10.6667 46.3773V49.9289C16.0982 55.3076 23.6886 58.6667 32.0897 58.6667Z" fill="white"/>
<circle cx="54" cy="54" r="9.5" fill="#38A169" stroke="white" stroke-width="3"/>
</svg>
