<svg width="86" height="87" viewBox="0 0 86 87" fill="none" xmlns="http://www.w3.org/2000/svg">
<mask id="mask0_198_10405" style="mask-type:alpha" maskUnits="userSpaceOnUse" x="3" y="3" width="80" height="81">
<path d="M65.8571 3H20.1429L3 18.6151V68.0629L20.1429 83.678H65.8571L83 68.0629V18.6151L65.8571 3Z" fill="#1CC880"/>
</mask>
<g mask="url(#mask0_198_10405)">
<path d="M19.8046 48.0182C19.8046 48.5362 19.3841 48.9548 18.867 48.9548C18.3494 48.9548 17.9312 48.5362 17.9312 48.0182C17.9312 47.5015 18.3494 47.0827 18.867 47.0827C19.3841 47.0827 19.8046 47.5015 19.8046 48.0182Z" fill="#1CC880"/>
<path d="M22.2782 48.0486C22.2782 48.5652 21.8591 48.9852 21.3414 48.9852C20.8248 48.9852 20.4058 48.5652 20.4058 48.0486C20.4058 47.531 20.8248 47.1126 21.3414 47.1126C21.8591 47.1126 22.2782 47.531 22.2782 48.0486Z" fill="#1CC880"/>
<path d="M24.7538 48.0494C24.7538 48.567 24.3336 48.9867 23.817 48.9867C23.2995 48.9867 22.8804 48.567 22.8804 48.0494C22.8804 47.5322 23.2995 47.1133 23.817 47.1133C24.3336 47.1133 24.7538 47.5322 24.7538 48.0494Z" fill="#1CC880"/>
<path d="M27.2289 48.0223C27.2289 48.5399 26.8084 48.959 26.2913 48.959C25.7737 48.959 25.3555 48.5399 25.3555 48.0223C25.3555 47.5048 25.7737 47.0861 26.2913 47.0861C26.8084 47.0861 27.2289 47.5048 27.2289 48.0223Z" fill="#1CC880"/>
<path d="M29.7026 48.0232C29.7026 48.5404 29.2835 48.9601 28.7664 48.9601C28.2492 48.9601 27.8306 48.5404 27.8306 48.0232C27.8306 47.5062 28.2492 47.0871 28.7664 47.0871C29.2835 47.0871 29.7026 47.5062 29.7026 48.0232Z" fill="#1CC880"/>
<path d="M54.4509 48.0387C54.4509 48.5558 54.0324 48.9745 53.5139 48.9745C52.9967 48.9745 52.5776 48.5558 52.5776 48.0387C52.5776 47.5211 52.9967 47.102 53.5139 47.102C54.0324 47.102 54.4509 47.5211 54.4509 48.0387Z" fill="#1CC880"/>
<path d="M56.9262 48.0157C56.9262 48.5339 56.5062 48.953 55.9894 48.953C55.4715 48.953 55.0522 48.5339 55.0522 48.0157C55.0522 47.5003 55.4715 47.0803 55.9894 47.0803C56.5062 47.0803 56.9262 47.5003 56.9262 48.0157Z" fill="#1CC880"/>
<path d="M59.4003 48.0176C59.4003 48.5352 58.9806 48.9539 58.464 48.9539C57.9469 48.9539 57.5269 48.5352 57.5269 48.0176C57.5269 47.5011 57.9469 47.0807 58.464 47.0807C58.9806 47.0807 59.4003 47.5011 59.4003 48.0176Z" fill="#1CC880"/>
<path d="M61.8758 48.0456C61.8758 48.5624 61.4563 48.9814 60.9382 48.9814C60.4212 48.9814 60.002 48.5624 60.002 48.0456C60.002 47.5278 60.4212 47.1086 60.9382 47.1086C61.4563 47.1086 61.8758 47.5278 61.8758 48.0456Z" fill="#1CC880"/>
<path d="M64.35 48.0456C64.35 48.5635 63.9309 48.9825 63.4132 48.9825C62.8966 48.9825 62.4766 48.5635 62.4766 48.0456C62.4766 47.5286 62.8966 47.1093 63.4132 47.1093C63.9309 47.1093 64.35 47.5286 64.35 48.0456Z" fill="#1CC880"/>
<path d="M66.8256 48.0199C66.8256 48.5372 66.4059 48.9567 65.8878 48.9567C65.3704 48.9567 64.9512 48.5372 64.9512 48.0199C64.9512 47.5032 65.3704 47.0833 65.8878 47.0833C66.4059 47.0833 66.8256 47.5032 66.8256 48.0199Z" fill="#1CC880"/>
<path d="M69.2993 48.0212C69.2993 48.5389 68.8796 48.9579 68.3621 48.9579C67.8459 48.9579 67.4263 48.5389 67.4263 48.0212C67.4263 47.5038 67.8459 47.0846 68.3621 47.0846C68.8796 47.0846 69.2993 47.5038 69.2993 48.0212Z" fill="#1CC880"/>
<path d="M71.7744 48.0289C71.7744 48.5474 71.3548 48.9667 70.8377 48.9667C70.3201 48.9667 69.9009 48.5474 69.9009 48.0289C69.9009 47.513 70.3201 47.093 70.8377 47.093C71.3548 47.093 71.7744 47.513 71.7744 48.0289Z" fill="#1CC880"/>
<path d="M74.2488 48.0304C74.2488 48.5474 73.8292 48.967 73.3126 48.967C72.7951 48.967 72.376 48.5474 72.376 48.0304C72.376 47.513 72.7951 47.0946 73.3126 47.0946C73.8292 47.0946 74.2488 47.513 74.2488 48.0304Z" fill="#1CC880"/>
<path d="M76.723 48.0128C76.723 48.5305 76.3043 48.9504 75.7869 48.9504C75.2702 48.9504 74.8501 48.5305 74.8501 48.0128C74.8501 47.4969 75.2702 47.0772 75.7869 47.0772C76.3043 47.0772 76.723 47.4969 76.723 48.0128Z" fill="#1CC880"/>
<path d="M79.1987 48.0115C79.1987 48.5294 78.7788 48.9482 78.2605 48.9482C77.7445 48.9482 77.3247 48.5294 77.3247 48.0115C77.3247 47.4957 77.7445 47.0762 78.2605 47.0762C78.7788 47.0762 79.1987 47.4957 79.1987 48.0115Z" fill="#1CC880"/>
<path d="M81.6734 48.0716C81.6734 48.5886 81.2541 49.0084 80.7376 49.0084C80.2189 49.0084 79.7988 48.5886 79.7988 48.0716C79.7988 47.5551 80.2189 47.1349 80.7376 47.1349C81.2541 47.1349 81.6734 47.5551 81.6734 48.0716Z" fill="#1CC880"/>
<path d="M84.1474 48.0717C84.1474 48.5892 83.7286 49.0101 83.2116 49.0101C82.6949 49.0101 82.2754 48.5892 82.2754 48.0717C82.2754 47.5557 82.6949 47.1357 83.2116 47.1357C83.7286 47.1357 84.1474 47.5557 84.1474 48.0717Z" fill="#1CC880"/>
<path d="M19.8046 50.6863C19.8046 51.2038 19.3841 51.6239 18.867 51.6239C18.3494 51.6239 17.9312 51.2038 17.9312 50.6863C17.9312 50.1697 18.3494 49.7505 18.867 49.7505C19.3841 49.7505 19.8046 50.1697 19.8046 50.6863Z" fill="#1CC880"/>
<path d="M22.2782 50.7151C22.2782 51.2328 21.8591 51.6517 21.3414 51.6517C20.8248 51.6517 20.4058 51.2328 20.4058 50.7151C20.4058 50.1985 20.8248 49.7793 21.3414 49.7793C21.8591 49.7793 22.2782 50.1985 22.2782 50.7151Z" fill="#1CC880"/>
<path d="M24.7538 50.7172C24.7538 51.2342 24.3336 51.6528 23.817 51.6528C23.2995 51.6528 22.8804 51.2342 22.8804 50.7172C22.8804 50.1995 23.2995 49.7804 23.817 49.7804C24.3336 49.7804 24.7538 50.1995 24.7538 50.7172Z" fill="#1CC880"/>
<path d="M27.2289 50.6888C27.2289 51.2056 26.8084 51.6255 26.2913 51.6255C25.7737 51.6255 25.3555 51.2056 25.3555 50.6888C25.3555 50.1723 25.7737 49.7532 26.2913 49.7532C26.8084 49.7532 27.2289 50.1723 27.2289 50.6888Z" fill="#1CC880"/>
<path d="M29.7026 50.69C29.7026 51.2084 29.2835 51.6265 28.7664 51.6265C28.2492 51.6265 27.8306 51.2084 27.8306 50.69C27.8306 50.1732 28.2492 49.7537 28.7664 49.7537C29.2835 49.7537 29.7026 50.1732 29.7026 50.69Z" fill="#1CC880"/>
<path d="M32.1771 50.701C32.1771 51.2178 31.758 51.6368 31.2399 51.6368C30.7234 51.6368 30.3047 51.2178 30.3047 50.701C30.3047 50.1835 30.7234 49.7644 31.2399 49.7644C31.758 49.7644 32.1771 50.1835 32.1771 50.701Z" fill="#1CC880"/>
<path d="M59.4003 50.6842C59.4003 51.2027 58.9806 51.621 58.464 51.621C57.9469 51.621 57.5269 51.2027 57.5269 50.6842C57.5269 50.1682 57.9469 49.7477 58.464 49.7477C58.9806 49.7477 59.4003 50.1682 59.4003 50.6842Z" fill="#1CC880"/>
<path d="M66.8256 50.6871C66.8256 51.2048 66.4059 51.6243 65.8878 51.6243C65.3704 51.6243 64.9512 51.2048 64.9512 50.6871C64.9512 50.1704 65.3704 49.7508 65.8878 49.7508C66.4059 49.7508 66.8256 50.1704 66.8256 50.6871Z" fill="#1CC880"/>
<path d="M69.2993 50.6884C69.2993 51.205 68.8796 51.6254 68.3621 51.6254C67.8459 51.6254 67.4263 51.205 67.4263 50.6884C67.4263 50.1719 67.8459 49.7524 68.3621 49.7524C68.8796 49.7524 69.2993 50.1719 69.2993 50.6884Z" fill="#1CC880"/>
<path d="M71.7744 50.6964C71.7744 51.2142 71.3548 51.6331 70.8377 51.6331C70.3201 51.6331 69.9009 51.2142 69.9009 50.6964C69.9009 50.1808 70.3201 49.7598 70.8377 49.7598C71.3548 49.7598 71.7744 50.1808 71.7744 50.6964Z" fill="#1CC880"/>
<path d="M74.2488 50.6975C74.2488 51.2151 73.8292 51.6331 73.3126 51.6331C72.7951 51.6331 72.376 51.2151 72.376 50.6975C72.376 50.1808 72.7951 49.7621 73.3126 49.7621C73.8292 49.7621 74.2488 50.1808 74.2488 50.6975Z" fill="#1CC880"/>
<path d="M76.723 50.6804C76.723 51.1985 76.3043 51.6173 75.7869 51.6173C75.2702 51.6173 74.8501 51.1985 74.8501 50.6804C74.8501 50.164 75.2702 49.7439 75.7869 49.7439C76.3043 49.7439 76.723 50.164 76.723 50.6804Z" fill="#1CC880"/>
<path d="M79.1987 50.6804C79.1987 51.1971 78.7788 51.6162 78.2605 51.6162C77.7445 51.6162 77.3247 51.1971 77.3247 50.6804C77.3247 50.1634 77.7445 49.7439 78.2605 49.7439C78.7788 49.7439 79.1987 50.1634 79.1987 50.6804Z" fill="#1CC880"/>
<path d="M81.6734 50.7387C81.6734 51.2552 81.2541 51.6753 80.7376 51.6753C80.2189 51.6753 79.7988 51.2552 79.7988 50.7387C79.7988 50.2211 80.2189 49.8019 80.7376 49.8019C81.2541 49.8019 81.6734 50.2211 81.6734 50.7387Z" fill="#1CC880"/>
<path d="M84.1474 50.7396C84.1474 51.257 83.7286 51.6763 83.2116 51.6763C82.6949 51.6763 82.2754 51.257 82.2754 50.7396C82.2754 50.2235 82.6949 49.8028 83.2116 49.8028C83.7286 49.8028 84.1474 50.2235 84.1474 50.7396Z" fill="#1CC880"/>
<path d="M19.8046 53.3529C19.8046 53.869 19.3841 54.2889 18.867 54.2889C18.3494 54.2889 17.9312 53.869 17.9312 53.3529C17.9312 52.8361 18.3494 52.4162 18.867 52.4162C19.3841 52.4162 19.8046 52.8361 19.8046 53.3529Z" fill="#1CC880"/>
<path d="M22.2782 53.3823C22.2782 53.8995 21.8591 54.319 21.3414 54.319C20.8248 54.319 20.4058 53.8995 20.4058 53.3823C20.4058 52.8646 20.8248 52.4462 21.3414 52.4462C21.8591 52.4462 22.2782 52.8646 22.2782 53.3823Z" fill="#1CC880"/>
<path d="M24.7538 53.3828C24.7538 53.9013 24.3336 54.3196 23.817 54.3196C23.2995 54.3196 22.8804 53.9013 22.8804 53.3828C22.8804 52.8657 23.2995 52.447 23.817 52.447C24.3336 52.447 24.7538 52.8657 24.7538 53.3828Z" fill="#1CC880"/>
<path d="M27.2289 53.3556C27.2289 53.8732 26.8084 54.293 26.2913 54.293C25.7737 54.293 25.3555 53.8732 25.3555 53.3556C25.3555 52.8391 25.7737 52.4196 26.2913 52.4196C26.8084 52.4196 27.2289 52.8391 27.2289 53.3556Z" fill="#1CC880"/>
<path d="M29.7026 53.3565C29.7026 53.8736 29.2835 54.2931 28.7664 54.2931C28.2492 54.2931 27.8306 53.8736 27.8306 53.3565C27.8306 52.8404 28.2492 52.4198 28.7664 52.4198C29.2835 52.4198 29.7026 52.8404 29.7026 53.3565Z" fill="#1CC880"/>
<path d="M32.1771 53.3672C32.1771 53.8838 31.758 54.3038 31.2399 54.3038C30.7234 54.3038 30.3047 53.8838 30.3047 53.3672C30.3047 52.8499 30.7234 52.431 31.2399 52.431C31.758 52.431 32.1771 52.8499 32.1771 53.3672Z" fill="#1CC880"/>
<path d="M66.8256 53.3537C66.8256 53.8722 66.4059 54.2898 65.8878 54.2898C65.3704 54.2898 64.9512 53.8722 64.9512 53.3537C64.9512 52.8371 65.3704 52.4179 65.8878 52.4179C66.4059 52.4179 66.8256 52.8371 66.8256 53.3537Z" fill="#1CC880"/>
<path d="M69.2993 53.3549C69.2993 53.8731 68.8796 54.2924 68.3621 54.2924C67.8459 54.2924 67.4263 53.8731 67.4263 53.3549C67.4263 52.8382 67.8459 52.4189 68.3621 52.4189C68.8796 52.4189 69.2993 52.8382 69.2993 53.3549Z" fill="#1CC880"/>
<path d="M71.7744 53.3625C71.7744 53.8801 71.3548 54.2993 70.8377 54.2993C70.3201 54.2993 69.9009 53.8801 69.9009 53.3625C69.9009 52.8454 70.3201 52.4269 70.8377 52.4269C71.3548 52.4269 71.7744 52.8454 71.7744 53.3625Z" fill="#1CC880"/>
<path d="M74.2488 53.3637C74.2488 53.8818 73.8292 54.3003 73.3126 54.3003C72.7951 54.3003 72.376 53.8818 72.376 53.3637C72.376 52.8475 72.7951 52.4278 73.3126 52.4278C73.8292 52.4278 74.2488 52.8475 74.2488 53.3637Z" fill="#1CC880"/>
<path d="M76.723 53.3472C76.723 53.8636 76.3043 54.2838 75.7869 54.2838C75.2702 54.2838 74.8501 53.8636 74.8501 53.3472C74.8501 52.8306 75.2702 52.411 75.7869 52.411C76.3043 52.411 76.723 52.8306 76.723 53.3472Z" fill="#1CC880"/>
<path d="M79.1987 53.3463C79.1987 53.8629 78.7788 54.283 78.2605 54.283C77.7445 54.283 77.3247 53.8629 77.3247 53.3463C77.3247 52.8296 77.7445 52.4101 78.2605 52.4101C78.7788 52.4101 79.1987 52.8296 79.1987 53.3463Z" fill="#1CC880"/>
<path d="M81.6734 53.4048C81.6734 53.9229 81.2541 54.3424 80.7376 54.3424C80.2189 54.3424 79.7988 53.9229 79.7988 53.4048C79.7988 52.8892 80.2189 52.4693 80.7376 52.4693C81.2541 52.4693 81.6734 52.8892 81.6734 53.4048Z" fill="#1CC880"/>
<path d="M84.1474 53.4057C84.1474 53.9237 83.7286 54.3429 83.2116 54.3429C82.6949 54.3429 82.2754 53.9237 82.2754 53.4057C82.2754 52.8895 82.6949 52.4695 83.2116 52.4695C83.7286 52.4695 84.1474 52.8895 84.1474 53.4057Z" fill="#1CC880"/>
<path d="M19.8046 56.0198C19.8046 56.5369 19.3845 56.9565 18.8678 56.9565C18.3502 56.9565 17.9312 56.5369 17.9312 56.0198C17.9312 55.5025 18.3502 55.0841 18.8678 55.0841C19.3845 55.0841 19.8046 55.5025 19.8046 56.0198Z" fill="#1CC880"/>
<path d="M22.2792 56.0497C22.2792 56.5669 21.8591 56.9861 21.3414 56.9861C20.8248 56.9861 20.4058 56.5669 20.4058 56.0497C20.4058 55.5319 20.8248 55.1131 21.3414 55.1131C21.8591 55.1131 22.2792 55.5319 22.2792 56.0497Z" fill="#1CC880"/>
<path d="M24.7538 56.051C24.7538 56.567 24.3346 56.9872 23.818 56.9872C23.3004 56.9872 22.8804 56.567 22.8804 56.051C22.8804 55.5337 23.3004 55.1146 23.818 55.1146C24.3346 55.1146 24.7538 55.5337 24.7538 56.051Z" fill="#1CC880"/>
<path d="M27.2289 56.0222C27.2289 56.5396 26.8088 56.9589 26.2917 56.9589C25.7747 56.9589 25.3555 56.5396 25.3555 56.0222C25.3555 55.5063 25.7747 55.0864 26.2917 55.0864C26.8088 55.0864 27.2289 55.5063 27.2289 56.0222Z" fill="#1CC880"/>
<path d="M29.7026 56.0232C29.7026 56.5408 29.2843 56.9617 28.7672 56.9617C28.2492 56.9617 27.8306 56.5408 27.8306 56.0232C27.8306 55.5065 28.2492 55.0874 28.7672 55.0874C29.2843 55.0874 29.7026 55.5065 29.7026 56.0232Z" fill="#1CC880"/>
<path d="M32.1771 56.0343C32.1771 56.5514 31.758 56.9711 31.2409 56.9711C30.7242 56.9711 30.3047 56.5514 30.3047 56.0343C30.3047 55.5179 30.7242 55.0982 31.2409 55.0982C31.758 55.0982 32.1771 55.5179 32.1771 56.0343Z" fill="#1CC880"/>
<path d="M34.6522 56.0353C34.6522 56.5514 34.2341 56.972 33.7164 56.972C33.1994 56.972 32.7798 56.5514 32.7798 56.0353C32.7798 55.5187 33.1994 55.0995 33.7164 55.0995C34.2341 55.0995 34.6522 55.5187 34.6522 56.0353Z" fill="#1CC880"/>
<path d="M37.1273 56.0148C37.1273 56.5332 36.7077 56.9514 36.1915 56.9514C35.6738 56.9514 35.2539 56.5332 35.2539 56.0148C35.2539 55.4989 35.6738 55.079 36.1915 55.079C36.7077 55.079 37.1273 55.4989 37.1273 56.0148Z" fill="#1CC880"/>
<path d="M39.6018 56.0157C39.6018 56.5343 39.1835 56.9525 38.666 56.9525C38.1494 56.9525 37.7285 56.5343 37.7285 56.0157C37.7285 55.4994 38.1494 55.0795 38.666 55.0795C39.1835 55.0795 39.6018 55.4994 39.6018 56.0157Z" fill="#1CC880"/>
<path d="M69.2993 56.0214C69.2993 56.5388 68.8796 56.958 68.3631 56.958C67.8459 56.958 67.4263 56.5388 67.4263 56.0214C67.4263 55.5056 67.8459 55.0856 68.3631 55.0856C68.8796 55.0856 69.2993 55.5056 69.2993 56.0214Z" fill="#1CC880"/>
<path d="M71.7745 56.0305C71.7745 56.5481 71.3549 56.9663 70.8377 56.9663C70.3205 56.9663 69.9014 56.5481 69.9014 56.0305C69.9014 55.5139 70.3205 55.094 70.8377 55.094C71.3549 55.094 71.7745 55.5139 71.7745 56.0305Z" fill="#1CC880"/>
<path d="M74.2493 56.031C74.2493 56.548 73.8296 56.9678 73.3126 56.9678C72.7951 56.9678 72.376 56.548 72.376 56.031C72.376 55.5148 72.7951 55.0949 73.3126 55.0949C73.8296 55.0949 74.2493 55.5148 74.2493 56.031Z" fill="#1CC880"/>
<path d="M76.723 56.0137C76.723 56.5312 76.3043 56.9503 75.7869 56.9503C75.2702 56.9503 74.8501 56.5312 74.8501 56.0137C74.8501 55.4971 75.2702 55.0779 75.7869 55.0779C76.3043 55.0779 76.723 55.4971 76.723 56.0137Z" fill="#1CC880"/>
<path d="M79.1986 56.0122C79.1986 56.531 78.7795 56.95 78.2604 56.95C77.7444 56.95 77.3252 56.531 77.3252 56.0122C77.3252 55.4958 77.7444 55.077 78.2604 55.077C78.7795 55.077 79.1986 55.4958 79.1986 56.0122Z" fill="#1CC880"/>
<path d="M81.674 56.0719C81.674 56.5896 81.2541 57.0087 80.7376 57.0087C80.2194 57.0087 79.7988 56.5896 79.7988 56.0719C79.7988 55.5561 80.2194 55.1362 80.7376 55.1362C81.2541 55.1362 81.674 55.5561 81.674 56.0719Z" fill="#1CC880"/>
<path d="M19.8046 58.687C19.8046 59.2032 19.3841 59.6227 18.867 59.6227C18.3494 59.6227 17.9312 59.2032 17.9312 58.687C17.9312 58.1704 18.3494 57.7512 18.867 57.7512C19.3841 57.7512 19.8046 58.1704 19.8046 58.687Z" fill="#1CC880"/>
<path d="M22.2782 58.7161C22.2782 59.2328 21.8591 59.6516 21.3414 59.6516C20.8248 59.6516 20.4058 59.2328 20.4058 58.7161C20.4058 58.1985 20.8248 57.7794 21.3414 57.7794C21.8591 57.7794 22.2782 58.1985 22.2782 58.7161Z" fill="#1CC880"/>
<path d="M24.7538 58.717C24.7538 59.2346 24.3336 59.6537 23.817 59.6537C23.2995 59.6537 22.8804 59.2346 22.8804 58.717C22.8804 58.2005 23.2995 57.7812 23.817 57.7812C24.3336 57.7812 24.7538 58.2005 24.7538 58.717Z" fill="#1CC880"/>
<path d="M27.2289 58.6899C27.2289 59.2071 26.8084 59.6256 26.2913 59.6256C25.7737 59.6256 25.3555 59.2071 25.3555 58.6899C25.3555 58.1728 25.7737 57.7521 26.2913 57.7521C26.8084 57.7521 27.2289 58.1728 27.2289 58.6899Z" fill="#1CC880"/>
<path d="M29.7026 58.6916C29.7026 59.2072 29.2835 59.6274 28.7664 59.6274C28.2492 59.6274 27.8306 59.2072 27.8306 58.6916C27.8306 58.1731 28.2492 57.7556 28.7664 57.7556C29.2835 57.7556 29.7026 58.1731 29.7026 58.6916Z" fill="#1CC880"/>
<path d="M32.1771 58.7017C32.1771 59.2173 31.758 59.6383 31.2399 59.6383C30.7234 59.6383 30.3047 59.2173 30.3047 58.7017C30.3047 58.1836 30.7234 57.7653 31.2399 57.7653C31.758 57.7653 32.1771 58.1836 32.1771 58.7017Z" fill="#1CC880"/>
<path d="M34.6522 58.7019C34.6522 59.2194 34.2341 59.6387 33.7156 59.6387C33.1989 59.6387 32.7798 59.2194 32.7798 58.7019C32.7798 58.1843 33.1989 57.7662 33.7156 57.7662C34.2341 57.7662 34.6522 58.1843 34.6522 58.7019Z" fill="#1CC880"/>
<path d="M37.1273 58.6817C37.1273 59.1997 36.7077 59.6188 36.1905 59.6188C35.673 59.6188 35.2539 59.1997 35.2539 58.6817C35.2539 58.1636 35.673 57.7454 36.1905 57.7454C36.7077 57.7454 37.1273 58.1636 37.1273 58.6817Z" fill="#1CC880"/>
<path d="M39.6018 58.6826C39.6018 59.2008 39.1827 59.6194 38.6656 59.6194C38.1484 59.6194 37.7285 59.2008 37.7285 58.6826C37.7285 58.1657 38.1484 57.7465 38.6656 57.7465C39.1827 57.7465 39.6018 58.1657 39.6018 58.6826Z" fill="#1CC880"/>
<path d="M42.0771 58.7197C42.0771 59.2365 41.6579 59.6564 41.1403 59.6564C40.6228 59.6564 40.2041 59.2365 40.2041 58.7197C40.2041 58.203 40.6228 57.783 41.1403 57.783C41.6579 57.783 42.0771 58.203 42.0771 58.7197Z" fill="#1CC880"/>
<path d="M69.2993 58.6879C69.2993 59.2051 68.8796 59.6256 68.3621 59.6256C67.8459 59.6256 67.4263 59.2051 67.4263 58.6879C67.4263 58.1723 67.8459 57.7518 68.3621 57.7518C68.8796 57.7518 69.2993 58.1723 69.2993 58.6879Z" fill="#1CC880"/>
<path d="M71.7744 58.6969C71.7744 59.214 71.3548 59.6335 70.8377 59.6335C70.3201 59.6335 69.9009 59.214 69.9009 58.6969C69.9009 58.1806 70.3201 57.7605 70.8377 57.7605C71.3548 57.7605 71.7744 58.1806 71.7744 58.6969Z" fill="#1CC880"/>
<path d="M74.2488 58.6973C74.2488 59.2157 73.8292 59.6339 73.3126 59.6339C72.7951 59.6339 72.376 59.2157 72.376 58.6973C72.376 58.1814 72.7951 57.7615 73.3126 57.7615C73.8292 57.7615 74.2488 58.1814 74.2488 58.6973Z" fill="#1CC880"/>
<path d="M76.723 58.6809C76.723 59.198 76.3043 59.6179 75.7869 59.6179C75.2702 59.6179 74.8501 59.198 74.8501 58.6809C74.8501 58.1637 75.2702 57.7452 75.7869 57.7452C76.3043 57.7452 76.723 58.1637 76.723 58.6809Z" fill="#1CC880"/>
<path d="M79.1987 58.6799C79.1987 59.197 78.7788 59.6172 78.2605 59.6172C77.7445 59.6172 77.3247 59.197 77.3247 58.6799C77.3247 58.1629 77.7445 57.7446 78.2605 57.7446C78.7788 57.7446 79.1987 58.1629 79.1987 58.6799Z" fill="#1CC880"/>
<path d="M81.6734 58.7385C81.6734 59.2552 81.2541 59.6752 80.7376 59.6752C80.2189 59.6752 79.7988 59.2552 79.7988 58.7385C79.7988 58.222 80.2189 57.8029 80.7376 57.8029C81.2541 57.8029 81.6734 58.222 81.6734 58.7385Z" fill="#1CC880"/>
<path d="M19.8046 61.3545C19.8046 61.8704 19.3845 62.2903 18.8678 62.2903C18.3502 62.2903 17.9312 61.8704 17.9312 61.3545C17.9312 60.8361 18.3502 60.4169 18.8678 60.4169C19.3845 60.4169 19.8046 60.8361 19.8046 61.3545Z" fill="#1CC880"/>
<path d="M22.2792 61.3842C22.2792 61.8998 21.8591 62.3198 21.3414 62.3198C20.8248 62.3198 20.4058 61.8998 20.4058 61.3842C20.4058 60.8656 20.8248 60.4479 21.3414 60.4479C21.8591 60.4479 22.2792 60.8656 22.2792 61.3842Z" fill="#1CC880"/>
<path d="M24.7538 61.3845C24.7538 61.9006 24.3346 62.3206 23.818 62.3206C23.3004 62.3206 22.8804 61.9006 22.8804 61.3845C22.8804 60.8665 23.3004 60.4488 23.818 60.4488C24.3346 60.4488 24.7538 60.8665 24.7538 61.3845Z" fill="#1CC880"/>
<path d="M27.2289 61.3565C27.2289 61.874 26.8088 62.293 26.2917 62.293C25.7747 62.293 25.3555 61.874 25.3555 61.3565C25.3555 60.8402 25.7747 60.4202 26.2917 60.4202C26.8088 60.4202 27.2289 60.8402 27.2289 61.3565Z" fill="#1CC880"/>
<path d="M29.7026 61.3574C29.7026 61.8754 29.2843 62.295 28.7672 62.295C28.2492 62.295 27.8306 61.8754 27.8306 61.3574C27.8306 60.8409 28.2492 60.4204 28.7672 60.4204C29.2843 60.4204 29.7026 60.8409 29.7026 61.3574Z" fill="#1CC880"/>
<path d="M32.1771 61.3667C32.1771 61.8852 31.758 62.3043 31.2409 62.3043C30.7242 62.3043 30.3047 61.8852 30.3047 61.3667C30.3047 60.851 30.7242 60.4305 31.2409 60.4305C31.758 60.4305 32.1771 60.851 32.1771 61.3667Z" fill="#1CC880"/>
<path d="M34.6522 61.3694C34.6522 61.8855 34.2341 62.3062 33.7164 62.3062C33.1994 62.3062 32.7798 61.8855 32.7798 61.3694C32.7798 60.8528 33.1994 60.4337 33.7164 60.4337C34.2341 60.4337 34.6522 60.8528 34.6522 61.3694Z" fill="#1CC880"/>
<path d="M37.1273 61.3489C37.1273 61.8655 36.7077 62.2852 36.1915 62.2852C35.6738 62.2852 35.2539 61.8655 35.2539 61.3489C35.2539 60.8328 35.6738 60.4128 36.1915 60.4128C36.7077 60.4128 37.1273 60.8328 37.1273 61.3489Z" fill="#1CC880"/>
<path d="M39.6018 61.3503C39.6018 61.8669 39.1835 62.2864 38.666 62.2864C38.1494 62.2864 37.7285 61.8669 37.7285 61.3503C37.7285 60.8332 38.1494 60.4135 38.666 60.4135C39.1835 60.4135 39.6018 60.8332 39.6018 61.3503Z" fill="#1CC880"/>
<path d="M69.2993 61.3554C69.2993 61.873 68.8796 62.293 68.3631 62.293C67.8459 62.293 67.4263 61.873 67.4263 61.3554C67.4263 60.8388 67.8459 60.4198 68.3631 60.4198C68.8796 60.4198 69.2993 60.8388 69.2993 61.3554Z" fill="#1CC880"/>
<path d="M71.7745 61.3648C71.7745 61.8806 71.3549 62.301 70.8377 62.301C70.3205 62.301 69.9014 61.8806 69.9014 61.3648C69.9014 60.8463 70.3205 60.428 70.8377 60.428C71.3549 60.428 71.7745 60.8463 71.7745 61.3648Z" fill="#1CC880"/>
<path d="M74.2493 61.3652C74.2493 61.8814 73.8296 62.3019 73.3126 62.3019C72.7951 62.3019 72.376 61.8814 72.376 61.3652C72.376 60.8481 72.7951 60.4289 73.3126 60.4289C73.8296 60.4289 74.2493 60.8481 74.2493 61.3652Z" fill="#1CC880"/>
<path d="M76.723 61.3478C76.723 61.8653 76.3043 62.2845 75.7869 62.2845C75.2702 62.2845 74.8501 61.8653 74.8501 61.3478C74.8501 60.8312 75.2702 60.4117 75.7869 60.4117C76.3043 60.4117 76.723 60.8312 76.723 61.3478Z" fill="#1CC880"/>
<path d="M79.1986 61.3462C79.1986 61.8645 78.7795 62.2837 78.2604 62.2837C77.7444 62.2837 77.3252 61.8645 77.3252 61.3462C77.3252 60.8301 77.7444 60.4103 78.2604 60.4103C78.7795 60.4103 79.1986 60.8301 79.1986 61.3462Z" fill="#1CC880"/>
<path d="M81.674 61.4056C81.674 61.9232 81.2541 62.3423 80.7376 62.3423C80.2194 62.3423 79.7988 61.9232 79.7988 61.4056C79.7988 60.8895 80.2194 60.4698 80.7376 60.4698C81.2541 60.4698 81.674 60.8895 81.674 61.4056Z" fill="#1CC880"/>
<path d="M22.2792 64.0492C22.2792 64.5667 21.8591 64.985 21.3414 64.985C20.8248 64.985 20.4058 64.5667 20.4058 64.0492C20.4058 63.5336 20.8248 63.1135 21.3414 63.1135C21.8591 63.1135 22.2792 63.5336 22.2792 64.0492Z" fill="#1CC880"/>
<path d="M24.7538 64.0505C24.7538 64.5678 24.3346 64.9872 23.818 64.9872C23.3004 64.9872 22.8804 64.5678 22.8804 64.0505C22.8804 63.534 23.3004 63.1135 23.818 63.1135C24.3346 63.1135 24.7538 63.534 24.7538 64.0505Z" fill="#1CC880"/>
<path d="M27.2289 64.0226C27.2289 64.5406 26.8088 64.9598 26.2917 64.9598C25.7747 64.9598 25.3555 64.5406 25.3555 64.0226C25.3555 63.5065 25.7747 63.0864 26.2917 63.0864C26.8088 63.0864 27.2289 63.5065 27.2289 64.0226Z" fill="#1CC880"/>
<path d="M29.7026 64.0245C29.7026 64.541 29.2843 64.9608 28.7672 64.9608C28.2492 64.9608 27.8306 64.541 27.8306 64.0245C27.8306 63.5068 28.2492 63.0886 28.7672 63.0886C29.2843 63.0886 29.7026 63.5068 29.7026 64.0245Z" fill="#1CC880"/>
<path d="M32.1771 64.0351C32.1771 64.5519 31.758 64.9709 31.2409 64.9709C30.7242 64.9709 30.3047 64.5519 30.3047 64.0351C30.3047 63.5176 30.7242 63.0989 31.2409 63.0989C31.758 63.0989 32.1771 63.5176 32.1771 64.0351Z" fill="#1CC880"/>
<path d="M34.6522 64.0352C34.6522 64.5527 34.2341 64.9728 33.7164 64.9728C33.1994 64.9728 32.7798 64.5527 32.7798 64.0352C32.7798 63.5185 33.1994 63.0989 33.7164 63.0989C34.2341 63.0989 34.6522 63.5185 34.6522 64.0352Z" fill="#1CC880"/>
<path d="M37.1273 64.0154C37.1273 64.534 36.7077 64.9521 36.1915 64.9521C35.6738 64.9521 35.2539 64.534 35.2539 64.0154C35.2539 63.498 35.6738 63.0797 36.1915 63.0797C36.7077 63.0797 37.1273 63.498 37.1273 64.0154Z" fill="#1CC880"/>
<path d="M39.6018 64.0162C39.6018 64.5339 39.1835 64.954 38.666 64.954C38.1494 64.954 37.7285 64.5339 37.7285 64.0162C37.7285 63.4997 38.1494 63.0804 38.666 63.0804C39.1835 63.0804 39.6018 63.4997 39.6018 64.0162Z" fill="#1CC880"/>
<path d="M69.2993 64.0212C69.2993 64.5393 68.8796 64.9594 68.3631 64.9594C67.8459 64.9594 67.4263 64.5393 67.4263 64.0212C67.4263 63.5057 67.8459 63.0859 68.3631 63.0859C68.8796 63.0859 69.2993 63.5057 69.2993 64.0212Z" fill="#1CC880"/>
<path d="M71.7745 64.0305C71.7745 64.5481 71.3549 64.9672 70.8377 64.9672C70.3205 64.9672 69.9014 64.5481 69.9014 64.0305C69.9014 63.5148 70.3205 63.0949 70.8377 63.0949C71.3549 63.0949 71.7745 63.5148 71.7745 64.0305Z" fill="#1CC880"/>
<path d="M74.2493 64.0312C74.2493 64.5489 73.8296 64.968 73.3126 64.968C72.7951 64.968 72.376 64.5489 72.376 64.0312C72.376 63.5147 72.7951 63.0954 73.3126 63.0954C73.8296 63.0954 74.2493 63.5147 74.2493 64.0312Z" fill="#1CC880"/>
<path d="M76.723 64.0145C76.723 64.5321 76.3043 64.9513 75.7869 64.9513C75.2702 64.9513 74.8501 64.5321 74.8501 64.0145C74.8501 63.4975 75.2702 63.0779 75.7869 63.0779C76.3043 63.0779 76.723 63.4975 76.723 64.0145Z" fill="#1CC880"/>
<path d="M79.1986 64.0137C79.1986 64.5303 78.7795 64.9513 78.2604 64.9513C77.7444 64.9513 77.3252 64.5303 77.3252 64.0137C77.3252 63.4964 77.7444 63.0779 78.2604 63.0779C78.7795 63.0779 79.1986 63.4964 79.1986 64.0137Z" fill="#1CC880"/>
<path d="M81.674 64.0727C81.674 64.5883 81.2541 65.0096 80.7376 65.0096C80.2194 65.0096 79.7988 64.5883 79.7988 64.0727C79.7988 63.5556 80.2194 63.1371 80.7376 63.1371C81.2541 63.1371 81.674 63.5556 81.674 64.0727Z" fill="#1CC880"/>
<path d="M24.7523 66.7179C24.7523 67.2343 24.3336 67.6547 23.817 67.6547C23.2995 67.6547 22.8804 67.2343 22.8804 66.7179C22.8804 66.2012 23.2995 65.7822 23.817 65.7822C24.3336 65.7822 24.7523 66.2012 24.7523 66.7179Z" fill="#1CC880"/>
<path d="M27.2279 66.6901C27.2279 67.2071 26.8084 67.6262 26.2913 67.6262C25.7737 67.6262 25.3545 67.2071 25.3545 66.6901C25.3545 66.1741 25.7737 65.7529 26.2913 65.7529C26.8084 65.7529 27.2279 66.1741 27.2279 66.6901Z" fill="#1CC880"/>
<path d="M29.7026 66.6904C29.7026 67.2089 29.2835 67.6282 28.7664 67.6282C28.2488 67.6282 27.8306 67.2089 27.8306 66.6904C27.8306 66.174 28.2488 65.7549 28.7664 65.7549C29.2835 65.7549 29.7026 66.174 29.7026 66.6904Z" fill="#1CC880"/>
<path d="M32.1772 66.7014C32.1772 67.2183 31.7581 67.6389 31.24 67.6389C30.7234 67.6389 30.3042 67.2183 30.3042 66.7014C30.3042 66.1851 30.7234 65.7645 31.24 65.7645C31.7581 65.7645 32.1772 66.1851 32.1772 66.7014Z" fill="#1CC880"/>
<path d="M34.6522 66.7027C34.6522 67.2198 34.2326 67.6389 33.7156 67.6389C33.1983 67.6389 32.7798 67.2198 32.7798 66.7027C32.7798 66.1851 33.1983 65.7661 33.7156 65.7661C34.2326 65.7661 34.6522 66.1851 34.6522 66.7027Z" fill="#1CC880"/>
<path d="M37.1273 66.683C37.1273 67.199 36.7073 67.6194 36.1897 67.6194C35.6724 67.6194 35.2539 67.199 35.2539 66.683C35.2539 66.1664 35.6724 65.7464 36.1897 65.7464C36.7073 65.7464 37.1273 66.1664 37.1273 66.683Z" fill="#1CC880"/>
<path d="M39.6014 66.6838C39.6014 67.2015 39.1827 67.6196 38.6656 67.6196C38.148 67.6196 37.7285 67.2015 37.7285 66.6838C37.7285 66.1672 38.148 65.7477 38.6656 65.7477C39.1827 65.7477 39.6014 66.1672 39.6014 66.6838Z" fill="#1CC880"/>
<path d="M69.2992 66.6887C69.2992 67.2071 68.8796 67.6262 68.362 67.6262C67.8445 67.6262 67.4258 67.2071 67.4258 66.6887C67.4258 66.1731 67.8445 65.7525 68.362 65.7525C68.8796 65.7525 69.2992 66.1731 69.2992 66.6887Z" fill="#1CC880"/>
<path d="M71.7744 66.6972C71.7744 67.2141 71.3538 67.6348 70.8377 67.6348C70.3201 67.6348 69.9009 67.2141 69.9009 66.6972C69.9009 66.1806 70.3201 65.7604 70.8377 65.7604C71.3538 65.7604 71.7744 66.1806 71.7744 66.6972Z" fill="#1CC880"/>
<path d="M74.2488 66.6988C74.2488 67.2164 73.8292 67.6356 73.3107 67.6356C72.7951 67.6356 72.376 67.2164 72.376 66.6988C72.376 66.1821 72.7951 65.7628 73.3107 65.7628C73.8292 65.7628 74.2488 66.1821 74.2488 66.6988Z" fill="#1CC880"/>
<path d="M76.7229 66.6816C76.7229 67.1986 76.3042 67.6183 75.7868 67.6183C75.2691 67.6183 74.8496 67.1986 74.8496 66.6816C74.8496 66.1649 75.2691 65.7458 75.7868 65.7458C76.3042 65.7458 76.7229 66.1649 76.7229 66.6816Z" fill="#1CC880"/>
<path d="M79.1977 66.6813C79.1977 67.1988 78.7778 67.6171 78.2605 67.6171C77.7439 67.6171 77.3247 67.1988 77.3247 66.6813C77.3247 66.1636 77.7439 65.7446 78.2605 65.7446C78.7778 65.7446 79.1977 66.1636 79.1977 66.6813Z" fill="#1CC880"/>
<path d="M84.1474 66.7404C84.1474 67.2579 83.7286 67.678 83.2105 67.678C82.6949 67.678 82.2744 67.2579 82.2744 66.7404C82.2744 66.2237 82.6949 65.8047 83.2105 65.8047C83.7286 65.8047 84.1474 66.2237 84.1474 66.7404Z" fill="#1CC880"/>
<path d="M27.2289 69.3562C27.2289 69.8747 26.8088 70.2928 26.2917 70.2928C25.7747 70.2928 25.3555 69.8747 25.3555 69.3562C25.3555 68.8396 25.7747 68.42 26.2917 68.42C26.8088 68.42 27.2289 68.8396 27.2289 69.3562Z" fill="#1CC880"/>
<path d="M29.7026 69.3568C29.7026 69.8751 29.2843 70.2934 28.7672 70.2934C28.2492 70.2934 27.8306 69.8751 27.8306 69.3568C27.8306 68.841 28.2492 68.4225 28.7672 68.4225C29.2843 68.4225 29.7026 68.841 29.7026 69.3568Z" fill="#1CC880"/>
<path d="M32.1771 69.3675C32.1771 69.8856 31.758 70.3052 31.2409 70.3052C30.7242 70.3052 30.3047 69.8856 30.3047 69.3675C30.3047 68.8513 30.7242 68.4317 31.2409 68.4317C31.758 68.4317 32.1771 68.8513 32.1771 69.3675Z" fill="#1CC880"/>
<path d="M34.6522 69.3695C34.6522 69.8863 34.2341 70.3065 33.7164 70.3065C33.1994 70.3065 32.7798 69.8863 32.7798 69.3695C32.7798 68.8527 33.1994 68.4321 33.7164 68.4321C34.2341 68.4321 34.6522 68.8527 34.6522 69.3695Z" fill="#1CC880"/>
<path d="M37.1273 69.3505C37.1273 69.8664 36.7077 70.2863 36.1915 70.2863C35.6738 70.2863 35.2539 69.8664 35.2539 69.3505C35.2539 68.8321 35.6738 68.4129 36.1915 68.4129C36.7077 68.4129 37.1273 68.8321 37.1273 69.3505Z" fill="#1CC880"/>
<path d="M69.2993 69.3552C69.2993 69.8728 68.8796 70.2919 68.3631 70.2919C67.8459 70.2919 67.4263 69.8728 67.4263 69.3552C67.4263 68.8384 67.8459 68.4195 68.3631 68.4195C68.8796 68.4195 69.2993 68.8384 69.2993 69.3552Z" fill="#1CC880"/>
<path d="M71.7745 69.3648C71.7745 69.8814 71.3549 70.3015 70.8377 70.3015C70.3205 70.3015 69.9014 69.8814 69.9014 69.3648C69.9014 68.8475 70.3205 68.428 70.8377 68.428C71.3549 68.428 71.7745 68.8475 71.7745 69.3648Z" fill="#1CC880"/>
<path d="M74.2493 69.3652C74.2493 69.8816 73.8296 70.3024 73.3126 70.3024C72.7951 70.3024 72.376 69.8816 72.376 69.3652C72.376 68.849 72.7951 68.428 73.3126 68.428C73.8296 68.428 74.2493 68.849 74.2493 69.3652Z" fill="#1CC880"/>
<path d="M76.723 69.3488C76.723 69.8664 76.3043 70.2854 75.7869 70.2854C75.2702 70.2854 74.8501 69.8664 74.8501 69.3488C74.8501 68.8312 75.2702 68.4121 75.7869 68.4121C76.3043 68.4121 76.723 68.8312 76.723 69.3488Z" fill="#1CC880"/>
<path d="M79.1986 69.3469C79.1986 69.8654 78.7795 70.2845 78.2604 70.2845C77.7444 70.2845 77.3252 69.8654 77.3252 69.3469C77.3252 68.8303 77.7444 68.4112 78.2604 68.4112C78.7795 68.4112 79.1986 68.8303 79.1986 69.3469Z" fill="#1CC880"/>
<path d="M84.1484 69.4072C84.1484 69.9245 83.7286 70.3436 83.2116 70.3436C82.6949 70.3436 82.2754 69.9245 82.2754 69.4072C82.2754 68.8898 82.6949 68.4715 83.2116 68.4715C83.7286 68.4715 84.1484 68.8898 84.1484 69.4072Z" fill="#1CC880"/>
<path d="M27.2279 72.0237C27.2279 72.5414 26.8084 72.9601 26.2913 72.9601C25.7737 72.9601 25.3545 72.5414 25.3545 72.0237C25.3545 71.5071 25.7737 71.0882 26.2913 71.0882C26.8084 71.0882 27.2279 71.5071 27.2279 72.0237Z" fill="#1CC880"/>
<path d="M29.7026 72.0249C29.7026 72.5428 29.2835 72.9625 28.7664 72.9625C28.2488 72.9625 27.8306 72.5428 27.8306 72.0249C27.8306 71.5083 28.2488 71.089 28.7664 71.089C29.2835 71.089 29.7026 71.5083 29.7026 72.0249Z" fill="#1CC880"/>
<path d="M32.1772 72.0349C32.1772 72.5536 31.7581 72.9727 31.24 72.9727C30.7234 72.9727 30.3042 72.5536 30.3042 72.0349C30.3042 71.5183 30.7234 71.0983 31.24 71.0983C31.7581 71.0983 32.1772 71.5183 32.1772 72.0349Z" fill="#1CC880"/>
<path d="M34.6522 72.037C34.6522 72.5536 34.2326 72.9727 33.7156 72.9727C33.1983 72.9727 32.7798 72.5536 32.7798 72.037C32.7798 71.5199 33.1983 71.1006 33.7156 71.1006C34.2326 71.1006 34.6522 71.5199 34.6522 72.037Z" fill="#1CC880"/>
<path d="M69.2992 72.0228C69.2992 72.5395 68.8796 72.9601 68.362 72.9601C67.8445 72.9601 67.4258 72.5395 67.4258 72.0228C67.4258 71.5067 67.8445 71.0863 68.362 71.0863C68.8796 71.0863 69.2992 71.5067 69.2992 72.0228Z" fill="#1CC880"/>
<path d="M71.7744 72.0318C71.7744 72.5481 71.3538 72.9672 70.8377 72.9672C70.3201 72.9672 69.9009 72.5481 69.9009 72.0318C69.9009 71.5148 70.3201 71.0948 70.8377 71.0948C71.3538 71.0948 71.7744 71.5148 71.7744 72.0318Z" fill="#1CC880"/>
<path d="M74.2488 72.0324C74.2488 72.5499 73.8292 72.97 73.3107 72.97C72.7951 72.97 72.376 72.5499 72.376 72.0324C72.376 71.5156 72.7951 71.0965 73.3107 71.0965C73.8292 71.0965 74.2488 71.5156 74.2488 72.0324Z" fill="#1CC880"/>
<path d="M76.7229 72.0163C76.7229 72.5323 76.3042 72.9521 75.7868 72.9521C75.2691 72.9521 74.8496 72.5323 74.8496 72.0163C74.8496 71.4982 75.2691 71.0787 75.7868 71.0787C76.3042 71.0787 76.7229 71.4982 76.7229 72.0163Z" fill="#1CC880"/>
<path d="M27.2279 74.6905C27.2279 75.2079 26.8084 75.6271 26.2913 75.6271C25.7737 75.6271 25.3545 75.2079 25.3545 74.6905C25.3545 74.1742 25.7737 73.7543 26.2913 73.7543C26.8084 73.7543 27.2279 74.1742 27.2279 74.6905Z" fill="#1CC880"/>
<path d="M29.7026 74.6913C29.7026 75.2089 29.2835 75.6277 28.7664 75.6277C28.2488 75.6277 27.8306 75.2089 27.8306 74.6913C27.8306 74.1746 28.2488 73.7558 28.7664 73.7558C29.2835 73.7558 29.7026 74.1746 29.7026 74.6913Z" fill="#1CC880"/>
<path d="M32.1772 74.7012C32.1772 75.2192 31.7581 75.6382 31.24 75.6382C30.7234 75.6382 30.3042 75.2192 30.3042 74.7012C30.3042 74.1853 30.7234 73.7648 31.24 73.7648C31.7581 73.7648 32.1772 74.1853 32.1772 74.7012Z" fill="#1CC880"/>
<path d="M34.6522 74.7024C34.6522 75.2201 34.2326 75.6382 33.7156 75.6382C33.1983 75.6382 32.7798 75.2201 32.7798 74.7024C32.7798 74.1857 33.1983 73.7658 33.7156 73.7658C34.2326 73.7658 34.6522 74.1857 34.6522 74.7024Z" fill="#1CC880"/>
<path d="M71.7744 74.697C71.7744 75.2155 71.3538 75.6348 70.8377 75.6348C70.3201 75.6348 69.9009 75.2155 69.9009 74.697C69.9009 74.1814 70.3201 73.7612 70.8377 73.7612C71.3538 73.7612 71.7744 74.1814 71.7744 74.697Z" fill="#1CC880"/>
<path d="M74.2488 74.7004C74.2488 75.216 73.8292 75.636 73.3107 75.636C72.7951 75.636 72.376 75.216 72.376 74.7004C72.376 74.1814 72.7951 73.7612 73.3107 73.7612C73.8292 73.7612 74.2488 74.1814 74.2488 74.7004Z" fill="#1CC880"/>
<path d="M27.2289 77.3579C27.2289 77.876 26.8084 78.2946 26.2913 78.2946C25.7737 78.2946 25.3555 77.876 25.3555 77.3579C25.3555 76.8409 25.7737 76.4217 26.2913 76.4217C26.8084 76.4217 27.2289 76.8409 27.2289 77.3579Z" fill="#1CC880"/>
<path d="M29.7026 77.3587C29.7026 77.8766 29.2835 78.2957 28.7664 78.2957C28.2492 78.2957 27.8306 77.8766 27.8306 77.3587C27.8306 76.8417 28.2492 76.4221 28.7664 76.4221C29.2835 76.4221 29.7026 76.8417 29.7026 77.3587Z" fill="#1CC880"/>
<path d="M32.1771 77.3691C32.1771 77.8879 31.758 78.3069 31.2399 78.3069C30.7234 78.3069 30.3047 77.8879 30.3047 77.3691C30.3047 76.8526 30.7234 76.433 31.2399 76.433C31.758 76.433 32.1771 76.8526 32.1771 77.3691Z" fill="#1CC880"/>
<path d="M27.2279 80.0247C27.2279 80.5412 26.8084 80.9609 26.2913 80.9609C25.7737 80.9609 25.3545 80.5412 25.3545 80.0247C25.3545 79.5079 25.7737 79.0879 26.2913 79.0879C26.8084 79.0879 27.2279 79.5079 27.2279 80.0247Z" fill="#1CC880"/>
<path d="M29.7026 80.0256C29.7026 80.543 29.2835 80.9612 28.7664 80.9612C28.2488 80.9612 27.8306 80.543 27.8306 80.0256C27.8306 79.5089 28.2488 79.0888 28.7664 79.0888C29.2835 79.0888 29.7026 79.5089 29.7026 80.0256Z" fill="#1CC880"/>
<path d="M32.1772 80.0364C32.1772 80.5525 31.7581 80.9725 31.24 80.9725C30.7234 80.9725 30.3042 80.5525 30.3042 80.0364C30.3042 79.5192 30.7234 79.0997 31.24 79.0997C31.7581 79.0997 32.1772 79.5192 32.1772 80.0364Z" fill="#1CC880"/>
<path d="M29.7026 82.6922C29.7026 83.2098 29.2835 83.6288 28.7664 83.6288C28.2492 83.6288 27.8306 83.2098 27.8306 82.6922C27.8306 82.1765 28.2492 81.7564 28.7664 81.7564C29.2835 81.7564 29.7026 82.1765 29.7026 82.6922Z" fill="#1CC880"/>
<path d="M32.1771 82.7024C32.1771 83.2211 31.758 83.6398 31.2399 83.6398C30.7234 83.6398 30.3047 83.2211 30.3047 82.7024C30.3047 82.1864 30.7234 81.7668 31.2399 81.7668C31.758 81.7668 32.1771 82.1864 32.1771 82.7024Z" fill="#1CC880"/>
<path d="M12.2976 8.02841C12.2976 8.54527 11.878 8.96533 11.3612 8.96533C10.8434 8.96533 10.4243 8.54527 10.4243 8.02841C10.4243 7.51169 10.8434 7.09246 11.3612 7.09246C11.878 7.09246 12.2976 7.51169 12.2976 8.02841Z" fill="#1CC880"/>
<path d="M14.7716 8.02959C14.7716 8.54658 14.3526 8.96582 13.8351 8.96582C13.3179 8.96582 12.8989 8.54658 12.8989 8.02959C12.8989 7.51273 13.3179 7.09323 13.8351 7.09323C14.3526 7.09323 14.7716 7.51273 14.7716 8.02959Z" fill="#1CC880"/>
<path d="M41.9944 8.03971C41.9944 8.55712 41.5762 8.97717 41.0584 8.97717C40.5412 8.97717 40.1216 8.55712 40.1216 8.03971C40.1216 7.52313 40.5412 7.10376 41.0584 7.10376C41.5762 7.10376 41.9944 7.52313 41.9944 8.03971Z" fill="#1CC880"/>
<path d="M44.4701 8.04132C44.4701 8.55804 44.0506 8.97754 43.5333 8.97754C43.0158 8.97754 42.5967 8.55804 42.5967 8.04132C42.5967 7.52405 43.0158 7.1044 43.5333 7.1044C44.0506 7.1044 44.4701 7.52405 44.4701 8.04132Z" fill="#1CC880"/>
<path d="M46.9432 8.01154C46.9432 8.52881 46.524 8.94873 46.0079 8.94873C45.4899 8.94873 45.0708 8.52881 45.0708 8.01154C45.0708 7.4944 45.4899 7.07517 46.0079 7.07517C46.524 7.07517 46.9432 7.4944 46.9432 8.01154Z" fill="#1CC880"/>
<path d="M49.4198 8.01246C49.4198 8.52987 49.0002 8.9491 48.4822 8.9491C47.9651 8.9491 47.5464 8.52987 47.5464 8.01246C47.5464 7.49602 47.9651 7.07582 48.4822 7.07582C49.0002 7.07582 49.4198 7.49602 49.4198 8.01246Z" fill="#1CC880"/>
<path d="M51.8938 8.02472C51.8938 8.54241 51.4743 8.96191 50.9573 8.96191C50.4396 8.96191 50.0205 8.54241 50.0205 8.02472C50.0205 7.50814 50.4396 7.08877 50.9573 7.08877C51.4743 7.08877 51.8938 7.50814 51.8938 8.02472Z" fill="#1CC880"/>
<path d="M54.3684 8.02545C54.3684 8.54273 53.9483 8.96265 53.4318 8.96265C52.9142 8.96265 52.4951 8.54273 52.4951 8.02545C52.4951 7.50859 52.9142 7.08923 53.4318 7.08923C53.9483 7.08923 54.3684 7.50859 54.3684 8.02545Z" fill="#1CC880"/>
<path d="M56.8431 8.00378C56.8431 8.52091 56.4241 8.94055 55.9071 8.94055C55.389 8.94055 54.9707 8.52091 54.9707 8.00378C54.9707 7.48734 55.389 7.06783 55.9071 7.06783C56.4241 7.06783 56.8431 7.48734 56.8431 8.00378Z" fill="#1CC880"/>
<path d="M7.34803 10.68C7.34803 11.1977 6.92841 11.6171 6.41155 11.6171C5.89378 11.6171 5.47461 11.1977 5.47461 10.68C5.47461 10.1637 5.89378 9.74392 6.41155 9.74392C6.92841 9.74392 7.34803 10.1637 7.34803 10.68Z" fill="#1CC880"/>
<path d="M9.82252 10.6809C9.82252 11.1984 9.40296 11.6178 8.88633 11.6178C8.36856 11.6178 7.94922 11.1984 7.94922 10.6809C7.94922 10.1646 8.36856 9.74507 8.88633 9.74507C9.40296 9.74507 9.82252 10.1646 9.82252 10.6809Z" fill="#1CC880"/>
<path d="M12.2976 10.6952C12.2976 11.2121 11.878 11.6316 11.3612 11.6316C10.8434 11.6316 10.4243 11.2121 10.4243 10.6952C10.4243 10.1781 10.8434 9.75873 11.3612 9.75873C11.878 9.75873 12.2976 10.1781 12.2976 10.6952Z" fill="#1CC880"/>
<path d="M14.7716 10.6956C14.7716 11.2133 14.3526 11.6327 13.8351 11.6327C13.3179 11.6327 12.8989 11.2133 12.8989 10.6956C12.8989 10.1796 13.3179 9.76024 13.8351 9.76024C14.3526 9.76024 14.7716 10.1796 14.7716 10.6956Z" fill="#1CC880"/>
<path d="M17.247 10.6717C17.247 11.1896 16.8274 11.6086 16.3104 11.6086C15.7927 11.6086 15.374 11.1896 15.374 10.6717C15.374 10.1553 15.7927 9.73634 16.3104 9.73634C16.8274 9.73634 17.247 10.1553 17.247 10.6717Z" fill="#1CC880"/>
<path d="M19.7216 10.6731C19.7216 11.1903 19.3023 11.61 18.7858 11.61C18.2682 11.61 17.8491 11.1903 17.8491 10.6731C17.8491 10.1565 18.2682 9.73657 18.7858 9.73657C19.3023 9.73657 19.7216 10.1565 19.7216 10.6731Z" fill="#1CC880"/>
<path d="M22.1965 10.7022C22.1965 11.2198 21.777 11.6393 21.2599 11.6393C20.7423 11.6393 20.3232 11.2198 20.3232 10.7022C20.3232 10.1859 20.7423 9.766 21.2599 9.766C21.777 9.766 22.1965 10.1859 22.1965 10.7022Z" fill="#1CC880"/>
<path d="M24.6707 10.7036C24.6707 11.2206 24.2516 11.6403 23.7341 11.6403C23.2175 11.6403 22.7979 11.2206 22.7979 10.7036C22.7979 10.1861 23.2175 9.76698 23.7341 9.76698C24.2516 9.76698 24.6707 10.1861 24.6707 10.7036Z" fill="#1CC880"/>
<path d="M27.1454 10.676C27.1454 11.1933 26.7262 11.6127 26.209 11.6127C25.6911 11.6127 25.2729 11.1933 25.2729 10.676C25.2729 10.1593 25.6911 9.74023 26.209 9.74023C26.7262 9.74023 27.1454 10.1593 27.1454 10.676Z" fill="#1CC880"/>
<path d="M29.6208 10.6771C29.6208 11.1943 29.2017 11.6138 28.6848 11.6138C28.1676 11.6138 27.7476 11.1943 27.7476 10.6771C27.7476 10.1601 28.1676 9.74064 28.6848 9.74064C29.2017 9.74064 29.6208 10.1601 29.6208 10.6771Z" fill="#1CC880"/>
<path d="M32.095 10.6877C32.095 11.205 31.6763 11.6248 31.1583 11.6248C30.6408 11.6248 30.2227 11.205 30.2227 10.6877C30.2227 10.1708 30.6408 9.75148 31.1583 9.75148C31.6763 9.75148 32.095 10.1708 32.095 10.6877Z" fill="#1CC880"/>
<path d="M34.5697 10.6881C34.5697 11.2055 34.1516 11.6249 33.6339 11.6249C33.1164 11.6249 32.6973 11.2055 32.6973 10.6881C32.6973 10.1715 33.1164 9.75244 33.6339 9.75244C34.1516 9.75244 34.5697 10.1715 34.5697 10.6881Z" fill="#1CC880"/>
<path d="M37.0448 10.6686C37.0448 11.1861 36.6256 11.6052 36.108 11.6052C35.5909 11.6052 35.1714 11.1861 35.1714 10.6686C35.1714 10.1517 35.5909 9.73223 36.108 9.73223C36.6256 9.73223 37.0448 10.1517 37.0448 10.6686Z" fill="#1CC880"/>
<path d="M44.4701 10.7078C44.4701 11.2249 44.0506 11.6443 43.5333 11.6443C43.0158 11.6443 42.5967 11.2249 42.5967 10.7078C42.5967 10.1909 43.0158 9.77101 43.5333 9.77101C44.0506 9.77101 44.4701 10.1909 44.4701 10.7078Z" fill="#1CC880"/>
<path d="M46.9432 10.6781C46.9432 11.1955 46.524 11.6147 46.0079 11.6147C45.4899 11.6147 45.0708 11.1955 45.0708 10.6781C45.0708 10.1618 45.4899 9.74132 46.0079 9.74132C46.524 9.74132 46.9432 10.1618 46.9432 10.6781Z" fill="#1CC880"/>
<path d="M49.4198 10.6795C49.4198 11.1966 49.0002 11.616 48.4822 11.616C47.9651 11.616 47.5464 11.1966 47.5464 10.6795C47.5464 10.1627 47.9651 9.74282 48.4822 9.74282C49.0002 9.74282 49.4198 10.1627 49.4198 10.6795Z" fill="#1CC880"/>
<path d="M51.8938 10.6916C51.8938 11.2086 51.4743 11.6287 50.9573 11.6287C50.4396 11.6287 50.0205 11.2086 50.0205 10.6916C50.0205 10.1749 50.4396 9.75538 50.9573 9.75538C51.4743 9.75538 51.8938 10.1749 51.8938 10.6916Z" fill="#1CC880"/>
<path d="M54.3684 10.6919C54.3684 11.2096 53.9483 11.6287 53.4318 11.6287C52.9142 11.6287 52.4951 11.2096 52.4951 10.6919C52.4951 10.1756 52.9142 9.75607 53.4318 9.75607C53.9483 9.75607 54.3684 10.1756 54.3684 10.6919Z" fill="#1CC880"/>
<path d="M69.2176 10.675C69.2176 11.1926 68.7977 11.6119 68.2815 11.6119C67.7624 11.6119 67.3447 11.1926 67.3447 10.675C67.3447 10.1586 67.7624 9.73866 68.2815 9.73866C68.7977 9.73866 69.2176 10.1586 69.2176 10.675Z" fill="#1CC880"/>
<path d="M81.5907 10.7256C81.5907 11.2429 81.1719 11.6622 80.6541 11.6622C80.1371 11.6622 79.7183 11.2429 79.7183 10.7256C79.7183 10.2086 80.1371 9.78924 80.6541 9.78924C81.1719 9.78924 81.5907 10.2086 81.5907 10.7256Z" fill="#1CC880"/>
<path d="M84.0659 10.7266C84.0659 11.2433 83.6462 11.6628 83.1291 11.6628C82.6115 11.6628 82.1919 11.2433 82.1919 10.7266C82.1919 10.2095 82.6115 9.7904 83.1291 9.7904C83.6462 9.7904 84.0659 10.2095 84.0659 10.7266Z" fill="#1CC880"/>
<path d="M4.87319 13.3791C4.87319 13.8959 4.45429 14.3154 3.93668 14.3154C3.41956 14.3154 3 13.8959 3 13.3791C3 12.8617 3.41956 12.4423 3.93668 12.4423C4.45429 12.4423 4.87319 12.8617 4.87319 13.3791Z" fill="#1CC880"/>
<path d="M7.34797 13.3469C7.34797 13.8642 6.92884 14.2836 6.4115 14.2836C5.89417 14.2836 5.4751 13.8642 5.4751 13.3469C5.4751 12.8308 5.89417 12.4114 6.4115 12.4114C6.92884 12.4114 7.34797 12.8308 7.34797 13.3469Z" fill="#1CC880"/>
<path d="M12.2973 13.362C12.2973 13.8793 11.8777 14.2991 11.361 14.2991C10.8434 14.2991 10.4243 13.8793 10.4243 13.362C10.4243 12.8453 10.8434 12.4259 11.361 12.4259C11.8777 12.4259 12.2973 12.8453 12.2973 13.362Z" fill="#1CC880"/>
<path d="M14.7718 13.363C14.7718 13.8806 14.3526 14.2999 13.8358 14.2999C13.3186 14.2999 12.8989 13.8806 12.8989 13.363C12.8989 12.8463 13.3186 12.4268 13.8358 12.4268C14.3526 12.4268 14.7718 12.8463 14.7718 13.363Z" fill="#1CC880"/>
<path d="M17.247 13.3391C17.247 13.8565 16.8279 14.2758 16.3104 14.2758C15.7937 14.2758 15.374 13.8565 15.374 13.3391C15.374 12.8224 15.7937 12.4029 16.3104 12.4029C16.8279 12.4029 17.247 12.8224 17.247 13.3391Z" fill="#1CC880"/>
<path d="M19.7216 13.3401C19.7216 13.8573 19.3028 14.2773 18.7858 14.2773C18.2682 14.2773 17.8491 13.8573 17.8491 13.3401C17.8491 12.8233 18.2682 12.4042 18.7858 12.4042C19.3028 12.4042 19.7216 12.8233 19.7216 13.3401Z" fill="#1CC880"/>
<path d="M22.1965 13.3698C22.1965 13.887 21.777 14.3064 21.2599 14.3064C20.7423 14.3064 20.3232 13.887 20.3232 13.3698C20.3232 12.853 20.7423 12.4338 21.2599 12.4338C21.777 12.4338 22.1965 12.853 22.1965 13.3698Z" fill="#1CC880"/>
<path d="M24.6707 13.3706C24.6707 13.8877 24.2516 14.3075 23.735 14.3075C23.2175 14.3075 22.7979 13.8877 22.7979 13.3706C22.7979 12.8541 23.2175 12.4341 23.735 12.4341C24.2516 12.4341 24.6707 12.8541 24.6707 13.3706Z" fill="#1CC880"/>
<path d="M27.1454 13.3434C27.1454 13.8606 26.7262 14.2798 26.2096 14.2798C25.6919 14.2798 25.2729 13.8606 25.2729 13.3434C25.2729 12.8266 25.6919 12.4069 26.2096 12.4069C26.7262 12.4069 27.1454 12.8266 27.1454 13.3434Z" fill="#1CC880"/>
<path d="M37.0448 13.3359C37.0448 13.8532 36.6256 14.2726 36.108 14.2726C35.5909 14.2726 35.1714 13.8532 35.1714 13.3359C35.1714 12.8192 35.5909 12.3994 36.108 12.3994C36.6256 12.3994 37.0448 12.8192 37.0448 13.3359Z" fill="#1CC880"/>
<path d="M44.4701 13.3748C44.4701 13.8916 44.0506 14.3113 43.5333 14.3113C43.0158 14.3113 42.5967 13.8916 42.5967 13.3748C42.5967 12.8579 43.0158 12.4384 43.5333 12.4384C44.0506 12.4384 44.4701 12.8579 44.4701 13.3748Z" fill="#1CC880"/>
<path d="M46.9446 13.3454C46.9446 13.8625 46.5251 14.2819 46.0079 14.2819C45.4899 14.2819 45.0708 13.8625 45.0708 13.3454C45.0708 12.8285 45.4899 12.4091 46.0079 12.4091C46.5251 12.4091 46.9446 12.8285 46.9446 13.3454Z" fill="#1CC880"/>
<path d="M66.7427 13.3412C66.7427 13.8583 66.3235 14.278 65.8055 14.278C65.2893 14.278 64.8701 13.8583 64.8701 13.3412C64.8701 12.8243 65.2893 12.4049 65.8055 12.4049C66.3235 12.4049 66.7427 12.8243 66.7427 13.3412Z" fill="#1CC880"/>
<path d="M69.2181 13.3421C69.2181 13.8597 68.7981 14.2792 68.2815 14.2792C67.764 14.2792 67.3447 13.8597 67.3447 13.3421C67.3447 12.8258 67.764 12.406 68.2815 12.406C68.7981 12.406 69.2181 12.8258 69.2181 13.3421Z" fill="#1CC880"/>
<path d="M71.6916 13.3504C71.6916 13.8682 71.2728 14.2876 70.7559 14.2876C70.2379 14.2876 69.8188 13.8682 69.8188 13.3504C69.8188 12.8341 70.2379 12.4146 70.7559 12.4146C71.2728 12.4146 71.6916 12.8341 71.6916 13.3504Z" fill="#1CC880"/>
<path d="M74.167 13.352C74.167 13.8687 73.7478 14.2883 73.2307 14.2883C72.7135 14.2883 72.2944 13.8687 72.2944 13.352C72.2944 12.8348 72.7135 12.4157 73.2307 12.4157C73.7478 12.4157 74.167 12.8348 74.167 13.352Z" fill="#1CC880"/>
<path d="M76.6418 13.3344C76.6418 13.8521 76.2217 14.2717 75.7043 14.2717C75.1872 14.2717 74.7681 13.8521 74.7681 13.3344C74.7681 12.8178 75.1872 12.3984 75.7043 12.3984C76.2217 12.3984 76.6418 12.8178 76.6418 13.3344Z" fill="#1CC880"/>
<path d="M79.116 13.3338C79.116 13.8509 78.6967 14.271 78.1805 14.271C77.6624 14.271 77.2441 13.8509 77.2441 13.3338C77.2441 12.8168 77.6624 12.3973 78.1805 12.3973C78.6967 12.3973 79.116 12.8168 79.116 13.3338Z" fill="#1CC880"/>
<path d="M81.5907 13.3927C81.5907 13.9098 81.1719 14.3293 80.6541 14.3293C80.1371 14.3293 79.7183 13.9098 79.7183 13.3927C79.7183 12.8758 80.1371 12.4562 80.6541 12.4562C81.1719 12.4562 81.5907 12.8758 81.5907 13.3927Z" fill="#1CC880"/>
<path d="M84.0659 13.3936C84.0659 13.9108 83.6466 14.3306 83.1291 14.3306C82.6133 14.3306 82.1919 13.9108 82.1919 13.3936C82.1919 12.8765 82.6133 12.457 83.1291 12.457C83.6466 12.457 84.0659 12.8765 84.0659 13.3936Z" fill="#1CC880"/>
<path d="M12.2976 16.0285C12.2976 16.5462 11.878 16.9657 11.3612 16.9657C10.8434 16.9657 10.4243 16.5462 10.4243 16.0285C10.4243 15.5123 10.8434 15.093 11.3612 15.093C11.878 15.093 12.2976 15.5123 12.2976 16.0285Z" fill="#1CC880"/>
<path d="M14.7716 16.0297C14.7716 16.5471 14.3526 16.9664 13.8351 16.9664C13.3179 16.9664 12.8989 16.5471 12.8989 16.0297C12.8989 15.5131 13.3179 15.0937 13.8351 15.0937C14.3526 15.0937 14.7716 15.5131 14.7716 16.0297Z" fill="#1CC880"/>
<path d="M17.247 16.0056C17.247 16.5231 16.8274 16.9427 16.3104 16.9427C15.7927 16.9427 15.374 16.5231 15.374 16.0056C15.374 15.4894 15.7927 15.0699 16.3104 15.0699C16.8274 15.0699 17.247 15.4894 17.247 16.0056Z" fill="#1CC880"/>
<path d="M19.7216 16.007C19.7216 16.5237 19.3023 16.9434 18.7858 16.9434C18.2682 16.9434 17.8491 16.5237 17.8491 16.007C17.8491 15.49 18.2682 15.0705 18.7858 15.0705C19.3023 15.0705 19.7216 15.49 19.7216 16.007Z" fill="#1CC880"/>
<path d="M22.1965 16.0362C22.1965 16.5536 21.777 16.9734 21.2599 16.9734C20.7423 16.9734 20.3232 16.5536 20.3232 16.0362C20.3232 15.5191 20.7423 15.0997 21.2599 15.0997C21.777 15.0997 22.1965 15.5191 22.1965 16.0362Z" fill="#1CC880"/>
<path d="M24.6707 16.037C24.6707 16.5548 24.2516 16.9738 23.7341 16.9738C23.2175 16.9738 22.7979 16.5548 22.7979 16.037C22.7979 15.5208 23.2175 15.1009 23.7341 15.1009C24.2516 15.1009 24.6707 15.5208 24.6707 16.037Z" fill="#1CC880"/>
<path d="M27.1454 16.0101C27.1454 16.5266 26.7262 16.9468 26.209 16.9468C25.6911 16.9468 25.2729 16.5266 25.2729 16.0101C25.2729 15.4933 25.6911 15.0735 26.209 15.0735C26.7262 15.0735 27.1454 15.4933 27.1454 16.0101Z" fill="#1CC880"/>
<path d="M32.095 16.0217C32.095 16.5382 31.6763 16.9583 31.1583 16.9583C30.6408 16.9583 30.2227 16.5382 30.2227 16.0217C30.2227 15.5046 30.6408 15.0853 31.1583 15.0853C31.6763 15.0853 32.095 15.5046 32.095 16.0217Z" fill="#1CC880"/>
<path d="M34.5697 16.0221C34.5697 16.5397 34.1516 16.9586 33.6339 16.9586C33.1164 16.9586 32.6973 16.5397 32.6973 16.0221C32.6973 15.5055 33.1164 15.0859 33.6339 15.0859C34.1516 15.0859 34.5697 15.5055 34.5697 16.0221Z" fill="#1CC880"/>
<path d="M37.0448 16.0021C37.0448 16.52 36.6256 16.9393 36.108 16.9393C35.5909 16.9393 35.1714 16.52 35.1714 16.0021C35.1714 15.4857 35.5909 15.0662 36.108 15.0662C36.6256 15.0662 37.0448 15.4857 37.0448 16.0021Z" fill="#1CC880"/>
<path d="M59.3173 16.005C59.3173 16.5227 58.899 16.942 58.382 16.942C57.8639 16.942 57.4448 16.5227 57.4448 16.005C57.4448 15.4885 57.8639 15.0689 58.382 15.0689C58.899 15.0689 59.3173 15.4885 59.3173 16.005Z" fill="#1CC880"/>
<path d="M66.7427 16.0078C66.7427 16.5255 66.3235 16.9448 65.8055 16.9448C65.2893 16.9448 64.8701 16.5255 64.8701 16.0078C64.8701 15.4912 65.2893 15.0717 65.8055 15.0717C66.3235 15.0717 66.7427 15.4912 66.7427 16.0078Z" fill="#1CC880"/>
<path d="M69.2176 16.0086C69.2176 16.5258 68.7977 16.9452 68.2815 16.9452C67.7624 16.9452 67.3447 16.5258 67.3447 16.0086C67.3447 15.4924 67.7624 15.0727 68.2815 15.0727C68.7977 15.0727 69.2176 15.4924 69.2176 16.0086Z" fill="#1CC880"/>
<path d="M71.6913 16.0168C71.6913 16.5345 71.2728 16.9548 70.7551 16.9548C70.2379 16.9548 69.8188 16.5345 69.8188 16.0168C69.8188 15.5006 70.2379 15.0811 70.7551 15.0811C71.2728 15.0811 71.6913 15.5006 71.6913 16.0168Z" fill="#1CC880"/>
<path d="M74.1669 16.0187C74.1669 16.5353 73.7477 16.9553 73.2296 16.9553C72.7135 16.9553 72.2939 16.5353 72.2939 16.0187C72.2939 15.5011 72.7135 15.0819 73.2296 15.0819C73.7477 15.0819 74.1669 15.5011 74.1669 16.0187Z" fill="#1CC880"/>
<path d="M76.6415 16.0013C76.6415 16.5189 76.2217 16.938 75.7043 16.938C75.1866 16.938 74.7681 16.5189 74.7681 16.0013C74.7681 15.4845 75.1866 15.0648 75.7043 15.0648C76.2217 15.0648 76.6415 15.4845 76.6415 16.0013Z" fill="#1CC880"/>
<path d="M79.1158 16.0004C79.1158 16.5169 78.6967 16.9371 78.1805 16.9371C77.6624 16.9371 77.2441 16.5169 77.2441 16.0004C77.2441 15.4832 77.6624 15.0637 78.1805 15.0637C78.6967 15.0637 79.1158 15.4832 79.1158 16.0004Z" fill="#1CC880"/>
<path d="M81.5907 16.0587C81.5907 16.5761 81.1719 16.9956 80.6541 16.9956C80.1371 16.9956 79.7183 16.5761 79.7183 16.0587C79.7183 15.5425 80.1371 15.123 80.6541 15.123C81.1719 15.123 81.5907 15.5425 81.5907 16.0587Z" fill="#1CC880"/>
<path d="M84.0659 16.0606C84.0659 16.5773 83.6462 16.9971 83.1291 16.9971C82.6115 16.9971 82.1919 16.5773 82.1919 16.0606C82.1919 15.5434 82.6115 15.1242 83.1291 15.1242C83.6462 15.1242 84.0659 15.5434 84.0659 16.0606Z" fill="#1CC880"/>
<path d="M12.2973 18.6959C12.2973 19.2129 11.8777 19.6324 11.361 19.6324C10.8434 19.6324 10.4243 19.2129 10.4243 18.6959C10.4243 18.179 10.8434 17.76 11.361 17.76C11.8777 17.76 12.2973 18.179 12.2973 18.6959Z" fill="#1CC880"/>
<path d="M14.7718 18.697C14.7718 19.2144 14.3526 19.6337 13.8358 19.6337C13.3186 19.6337 12.8989 19.2144 12.8989 18.697C12.8989 18.1798 13.3186 17.7607 13.8358 17.7607C14.3526 17.7607 14.7718 18.1798 14.7718 18.697Z" fill="#1CC880"/>
<path d="M17.247 18.6727C17.247 19.1908 16.8279 19.6099 16.3104 19.6099C15.7937 19.6099 15.374 19.1908 15.374 18.6727C15.374 18.1566 15.7937 17.7369 16.3104 17.7369C16.8279 17.7369 17.247 18.1566 17.247 18.6727Z" fill="#1CC880"/>
<path d="M19.7216 18.6745C19.7216 19.1914 19.3028 19.6115 18.7858 19.6115C18.2682 19.6115 17.8491 19.1914 17.8491 18.6745C17.8491 18.1571 18.2682 17.738 18.7858 17.738C19.3028 17.738 19.7216 18.1571 19.7216 18.6745Z" fill="#1CC880"/>
<path d="M22.1965 18.7035C22.1965 19.2207 21.777 19.6398 21.2599 19.6398C20.7423 19.6398 20.3232 19.2207 20.3232 18.7035C20.3232 18.1868 20.7423 17.7672 21.2599 17.7672C21.777 17.7672 22.1965 18.1868 22.1965 18.7035Z" fill="#1CC880"/>
<path d="M24.6707 18.7052C24.6707 19.222 24.2516 19.6416 23.735 19.6416C23.2175 19.6416 22.7979 19.222 22.7979 18.7052C22.7979 18.1874 23.2175 17.768 23.735 17.768C24.2516 17.768 24.6707 18.1874 24.6707 18.7052Z" fill="#1CC880"/>
<path d="M27.1454 18.677C27.1454 19.1942 26.7262 19.6135 26.2096 19.6135C25.6919 19.6135 25.2729 19.1942 25.2729 18.677C25.2729 18.1604 25.6919 17.7408 26.2096 17.7408C26.7262 17.7408 27.1454 18.1604 27.1454 18.677Z" fill="#1CC880"/>
<path d="M29.6214 18.6781C29.6214 19.1948 29.2017 19.6149 28.6848 19.6149C28.1676 19.6149 27.7476 19.1948 27.7476 18.6781C27.7476 18.1611 28.1676 17.7412 28.6848 17.7412C29.2017 17.7412 29.6214 18.1611 29.6214 18.6781Z" fill="#1CC880"/>
<path d="M32.095 18.6891C32.095 19.2065 31.6763 19.625 31.1593 19.625C30.6416 19.625 30.2227 19.2065 30.2227 18.6891C30.2227 18.1718 30.6416 17.7519 31.1593 17.7519C31.6763 17.7519 32.095 18.1718 32.095 18.6891Z" fill="#1CC880"/>
<path d="M34.5693 18.6898C34.5693 19.2065 34.1512 19.626 33.6335 19.626C33.1159 19.626 32.6973 19.2065 32.6973 18.6898C32.6973 18.1729 33.1159 17.7535 33.6335 17.7535C34.1512 17.7535 34.5693 18.1729 34.5693 18.6898Z" fill="#1CC880"/>
<path d="M37.0448 18.6695C37.0448 19.1867 36.6256 19.6058 36.108 19.6058C35.5909 19.6058 35.1714 19.1867 35.1714 18.6695C35.1714 18.1528 35.5909 17.7339 36.108 17.7339C36.6256 17.7339 37.0448 18.1528 37.0448 18.6695Z" fill="#1CC880"/>
<path d="M59.3173 18.6725C59.3173 19.19 58.899 19.6091 58.382 19.6091C57.8639 19.6091 57.4458 19.19 57.4458 18.6725C57.4458 18.1561 57.8639 17.736 58.382 17.736C58.899 17.736 59.3173 18.1561 59.3173 18.6725Z" fill="#1CC880"/>
<path d="M64.2684 18.7013C64.2684 19.2179 63.8484 19.6381 63.3328 19.6381C62.8137 19.6381 62.395 19.2179 62.395 18.7013C62.395 18.1839 62.8137 17.7645 63.3328 17.7645C63.8484 17.7645 64.2684 18.1839 64.2684 18.7013Z" fill="#1CC880"/>
<path d="M66.7427 18.6751C66.7427 19.1921 66.3235 19.6115 65.8055 19.6115C65.2893 19.6115 64.8701 19.1921 64.8701 18.6751C64.8701 18.1581 65.2893 17.7387 65.8055 17.7387C66.3235 17.7387 66.7427 18.1581 66.7427 18.6751Z" fill="#1CC880"/>
<path d="M69.2181 18.6759C69.2181 19.1934 68.7981 19.6128 68.2815 19.6128C67.764 19.6128 67.3447 19.1934 67.3447 18.6759C67.3447 18.1587 67.764 17.7396 68.2815 17.7396C68.7981 17.7396 69.2181 18.1587 69.2181 18.6759Z" fill="#1CC880"/>
<path d="M71.6916 18.6848C71.6916 19.2017 71.2728 19.6213 70.7559 19.6213C70.2379 19.6213 69.8188 19.2017 69.8188 18.6848C69.8188 18.1678 70.2379 17.7479 70.7559 17.7479C71.2728 17.7479 71.6916 18.1678 71.6916 18.6848Z" fill="#1CC880"/>
<path d="M74.167 18.6854C74.167 19.203 73.7478 19.6221 73.2307 19.6221C72.7135 19.6221 72.2944 19.203 72.2944 18.6854C72.2944 18.1696 72.7135 17.7496 73.2307 17.7496C73.7478 17.7496 74.167 18.1696 74.167 18.6854Z" fill="#1CC880"/>
<path d="M76.6418 18.6679C76.6418 19.1852 76.2217 19.6052 75.7043 19.6052C75.1872 19.6052 74.7681 19.1852 74.7681 18.6679C74.7681 18.1516 75.1872 17.732 75.7043 17.732C76.2217 17.732 76.6418 18.1516 76.6418 18.6679Z" fill="#1CC880"/>
<path d="M79.116 18.6675C79.116 19.1843 78.6967 19.6041 78.1805 19.6041C77.6624 19.6041 77.2441 19.1843 77.2441 18.6675C77.2441 18.1504 77.6624 17.7313 78.1805 17.7313C78.6967 17.7313 79.116 18.1504 79.116 18.6675Z" fill="#1CC880"/>
<path d="M81.5907 18.7263C81.5907 19.2437 81.1719 19.6631 80.6541 19.6631C80.1371 19.6631 79.7183 19.2437 79.7183 18.7263C79.7183 18.209 80.1371 17.7899 80.6541 17.7899C81.1719 17.7899 81.5907 18.209 81.5907 18.7263Z" fill="#1CC880"/>
<path d="M84.0659 18.7275C84.0659 19.2445 83.6466 19.6638 83.1291 19.6638C82.6133 19.6638 82.1919 19.2445 82.1919 18.7275C82.1919 18.2109 82.6133 17.7918 83.1291 17.7918C83.6466 17.7918 84.0659 18.2109 84.0659 18.7275Z" fill="#1CC880"/>
<path d="M9.82285 21.3491C9.82285 21.8657 9.40329 22.285 8.88611 22.285C8.36884 22.285 7.94971 21.8657 7.94971 21.3491C7.94971 20.8322 8.36884 20.4119 8.88611 20.4119C9.40329 20.4119 9.82285 20.8322 9.82285 21.3491Z" fill="#1CC880"/>
<path d="M12.2973 21.3631C12.2973 21.8798 11.8777 22.2991 11.361 22.2991C10.8434 22.2991 10.4243 21.8798 10.4243 21.3631C10.4243 20.8454 10.8434 20.4266 11.361 20.4266C11.8777 20.4266 12.2973 20.8454 12.2973 21.3631Z" fill="#1CC880"/>
<path d="M14.7718 21.3635C14.7718 21.8807 14.3526 22.3002 13.8358 22.3002C13.3186 22.3002 12.8989 21.8807 12.8989 21.3635C12.8989 20.8467 13.3186 20.427 13.8358 20.427C14.3526 20.427 14.7718 20.8467 14.7718 21.3635Z" fill="#1CC880"/>
<path d="M17.247 21.3393C17.247 21.8566 16.8279 22.2765 16.3104 22.2765C15.7937 22.2765 15.374 21.8566 15.374 21.3393C15.374 20.8231 15.7937 20.4034 16.3104 20.4034C16.8279 20.4034 17.247 20.8231 17.247 21.3393Z" fill="#1CC880"/>
<path d="M19.7216 21.3406C19.7216 21.8583 19.3028 22.2773 18.7858 22.2773C18.2682 22.2773 17.8491 21.8583 17.8491 21.3406C17.8491 20.8237 18.2682 20.4039 18.7858 20.4039C19.3028 20.4039 19.7216 20.8237 19.7216 21.3406Z" fill="#1CC880"/>
<path d="M22.1965 21.3699C22.1965 21.8869 21.777 22.3066 21.2599 22.3066C20.7423 22.3066 20.3232 21.8869 20.3232 21.3699C20.3232 20.8531 20.7423 20.4339 21.2599 20.4339C21.777 20.4339 22.1965 20.8531 22.1965 21.3699Z" fill="#1CC880"/>
<path d="M24.6707 21.3709C24.6707 21.8884 24.2516 22.3079 23.735 22.3079C23.2175 22.3079 22.7979 21.8884 22.7979 21.3709C22.7979 20.8549 23.2175 20.4351 23.735 20.4351C24.2516 20.4351 24.6707 20.8549 24.6707 21.3709Z" fill="#1CC880"/>
<path d="M27.1454 21.3433C27.1454 21.8607 26.7262 22.2806 26.2096 22.2806C25.6919 22.2806 25.2729 21.8607 25.2729 21.3433C25.2729 20.8267 25.6919 20.4074 26.2096 20.4074C26.7262 20.4074 27.1454 20.8267 27.1454 21.3433Z" fill="#1CC880"/>
<path d="M29.6214 21.3443C29.6214 21.8617 29.2017 22.2812 28.6848 22.2812C28.1676 22.2812 27.7476 21.8617 27.7476 21.3443C27.7476 20.8278 28.1676 20.4077 28.6848 20.4077C29.2017 20.4077 29.6214 20.8278 29.6214 21.3443Z" fill="#1CC880"/>
<path d="M32.095 21.3549C32.095 21.8724 31.6763 22.292 31.1593 22.292C30.6416 22.292 30.2227 21.8724 30.2227 21.3549C30.2227 20.8382 30.6416 20.419 31.1593 20.419C31.6763 20.419 32.095 20.8382 32.095 21.3549Z" fill="#1CC880"/>
<path d="M59.3173 21.3393C59.3173 21.8566 58.899 22.2765 58.382 22.2765C57.8639 22.2765 57.4458 21.8566 57.4458 21.3393C57.4458 20.8224 57.8639 20.4034 58.382 20.4034C58.899 20.4034 59.3173 20.8224 59.3173 21.3393Z" fill="#1CC880"/>
<path d="M61.7931 21.3661C61.7931 21.884 61.374 22.3035 60.8561 22.3035C60.3394 22.3035 59.9194 21.884 59.9194 21.3661C59.9194 20.8494 60.3394 20.4299 60.8561 20.4299C61.374 20.4299 61.7931 20.8494 61.7931 21.3661Z" fill="#1CC880"/>
<path d="M64.2684 21.3677C64.2684 21.8846 63.8484 22.3038 63.3328 22.3038C62.8137 22.3038 62.395 21.8846 62.395 21.3677C62.395 20.8508 62.8137 20.4317 63.3328 20.4317C63.8484 20.4317 64.2684 20.8508 64.2684 21.3677Z" fill="#1CC880"/>
<path d="M66.7427 21.3419C66.7427 21.8588 66.3235 22.2781 65.8055 22.2781C65.2893 22.2781 64.8701 21.8588 64.8701 21.3419C64.8701 20.8247 65.2893 20.4059 65.8055 20.4059C66.3235 20.4059 66.7427 20.8247 66.7427 21.3419Z" fill="#1CC880"/>
<path d="M69.2181 21.3419C69.2181 21.8598 68.7981 22.2795 68.2815 22.2795C67.764 22.2795 67.3447 21.8598 67.3447 21.3419C67.3447 20.8254 67.764 20.407 68.2815 20.407C68.7981 20.407 69.2181 20.8254 69.2181 21.3419Z" fill="#1CC880"/>
<path d="M71.6916 21.3514C71.6916 21.8687 71.2728 22.2882 70.7559 22.2882C70.2379 22.2882 69.8188 21.8687 69.8188 21.3514C69.8188 20.8346 70.2379 20.4145 70.7559 20.4145C71.2728 20.4145 71.6916 20.8346 71.6916 21.3514Z" fill="#1CC880"/>
<path d="M74.167 21.3522C74.167 21.8697 73.7478 22.2887 73.2307 22.2887C72.7135 22.2887 72.2944 21.8697 72.2944 21.3522C72.2944 20.8353 72.7135 20.4163 73.2307 20.4163C73.7478 20.4163 74.167 20.8353 74.167 21.3522Z" fill="#1CC880"/>
<path d="M76.6418 21.3352C76.6418 21.8527 76.2217 22.2716 75.7043 22.2716C75.1872 22.2716 74.7681 21.8527 74.7681 21.3352C74.7681 20.8182 75.1872 20.3987 75.7043 20.3987C76.2217 20.3987 76.6418 20.8182 76.6418 21.3352Z" fill="#1CC880"/>
<path d="M79.116 21.3341C79.116 21.8514 78.6967 22.271 78.1805 22.271C77.6624 22.271 77.2441 21.8514 77.2441 21.3341C77.2441 20.8174 77.6624 20.3976 78.1805 20.3976C78.6967 20.3976 79.116 20.8174 79.116 21.3341Z" fill="#1CC880"/>
<path d="M81.5907 21.3932C81.5907 21.91 81.1719 22.33 80.6541 22.33C80.1371 22.33 79.7183 21.91 79.7183 21.3932C79.7183 20.876 80.1371 20.4565 80.6541 20.4565C81.1719 20.4565 81.5907 20.876 81.5907 21.3932Z" fill="#1CC880"/>
<path d="M84.0659 21.394C84.0659 21.9113 83.6466 22.3308 83.1291 22.3308C82.6133 22.3308 82.1919 21.9113 82.1919 21.394C82.1919 20.8775 82.6133 20.4577 83.1291 20.4577C83.6466 20.4577 84.0659 20.8775 84.0659 21.394Z" fill="#1CC880"/>
<path d="M7.34803 24.0144C7.34803 24.5318 6.92841 24.9519 6.41107 24.9519C5.89378 24.9519 5.47461 24.5318 5.47461 24.0144C5.47461 23.4976 5.89378 23.0782 6.41107 23.0782C6.92841 23.0782 7.34803 23.4976 7.34803 24.0144Z" fill="#1CC880"/>
<path d="M9.82252 24.0158C9.82252 24.5328 9.40296 24.953 8.88633 24.953C8.36856 24.953 7.94922 24.5328 7.94922 24.0158C7.94922 23.4991 8.36856 23.0796 8.88633 23.0796C9.40296 23.0796 9.82252 23.4991 9.82252 24.0158Z" fill="#1CC880"/>
<path d="M12.2974 24.0294C12.2974 24.5471 11.8777 24.9663 11.3606 24.9663C10.8432 24.9663 10.4238 24.5471 10.4238 24.0294C10.4238 23.5127 10.8432 23.0929 11.3606 23.0929C11.8777 23.0929 12.2974 23.5127 12.2974 24.0294Z" fill="#1CC880"/>
<path d="M14.771 24.0311C14.771 24.5478 14.3523 24.9669 13.8349 24.9669C13.3177 24.9669 12.8984 24.5478 12.8984 24.0311C12.8984 23.5137 13.3177 23.0942 13.8349 23.0942C14.3523 23.0942 14.771 23.5137 14.771 24.0311Z" fill="#1CC880"/>
<path d="M17.247 24.007C17.247 24.5238 16.8273 24.9437 16.3103 24.9437C15.7926 24.9437 15.3735 24.5238 15.3735 24.007C15.3735 23.4901 15.7926 23.0705 16.3103 23.0705C16.8273 23.0705 17.247 23.4901 17.247 24.007Z" fill="#1CC880"/>
<path d="M19.7216 24.0077C19.7216 24.5248 19.3023 24.9445 18.7849 24.9445C18.2671 24.9445 17.8491 24.5248 17.8491 24.0077C17.8491 23.491 18.2671 23.0715 18.7849 23.0715C19.3023 23.0715 19.7216 23.491 19.7216 24.0077Z" fill="#1CC880"/>
<path d="M22.1962 24.037C22.1962 24.5544 21.7769 24.9739 21.2598 24.9739C20.7423 24.9739 20.3228 24.5544 20.3228 24.037C20.3228 23.5202 20.7423 23.101 21.2598 23.101C21.7769 23.101 22.1962 23.5202 22.1962 24.037Z" fill="#1CC880"/>
<path d="M24.6707 24.0382C24.6707 24.555 24.2512 24.9751 23.7341 24.9751C23.2165 24.9751 22.7979 24.555 22.7979 24.0382C22.7979 23.5213 23.2165 23.1014 23.7341 23.1014C24.2512 23.1014 24.6707 23.5213 24.6707 24.0382Z" fill="#1CC880"/>
<path d="M27.1454 24.0104C27.1454 24.5282 26.7256 24.9471 26.2086 24.9471C25.6911 24.9471 25.2729 24.5282 25.2729 24.0104C25.2729 23.4939 25.6911 23.0746 26.2086 23.0746C26.7256 23.0746 27.1454 23.4939 27.1454 24.0104Z" fill="#1CC880"/>
<path d="M29.6208 24.012C29.6208 24.5287 29.2009 24.9482 28.6838 24.9482C28.1666 24.9482 27.7476 24.5287 27.7476 24.012C27.7476 23.4947 28.1666 23.0754 28.6838 23.0754C29.2009 23.0754 29.6208 23.4947 29.6208 24.012Z" fill="#1CC880"/>
<path d="M59.3173 24.0059C59.3173 24.5236 58.8982 24.9431 58.3821 24.9431C57.864 24.9431 57.4443 24.5236 57.4443 24.0059C57.4443 23.4895 57.864 23.0697 58.3821 23.0697C58.8982 23.0697 59.3173 23.4895 59.3173 24.0059Z" fill="#1CC880"/>
<path d="M61.7928 24.0339C61.7928 24.551 61.374 24.9702 60.8561 24.9702C60.3381 24.9702 59.9194 24.551 59.9194 24.0339C59.9194 23.5167 60.3381 23.0972 60.8561 23.0972C61.374 23.0972 61.7928 23.5167 61.7928 24.0339Z" fill="#1CC880"/>
<path d="M64.2673 24.0347C64.2673 24.552 63.8478 24.9709 63.3301 24.9709C62.8131 24.9709 62.394 24.552 62.394 24.0347C62.394 23.5177 62.8131 23.0986 63.3301 23.0986C63.8478 23.0986 64.2673 23.5177 64.2673 24.0347Z" fill="#1CC880"/>
<path d="M66.7427 24.009C66.7427 24.5266 66.3225 24.9459 65.8055 24.9459C65.2884 24.9459 64.8691 24.5266 64.8691 24.009C64.8691 23.4923 65.2884 23.0725 65.8055 23.0725C66.3225 23.0725 66.7427 23.4923 66.7427 24.009Z" fill="#1CC880"/>
<path d="M69.2158 24.0095C69.2158 24.5275 68.7977 24.9464 68.2801 24.9464C67.7624 24.9464 67.3447 24.5275 67.3447 24.0095C67.3447 23.4931 67.7624 23.0737 68.2801 23.0737C68.7977 23.0737 69.2158 23.4931 69.2158 24.0095Z" fill="#1CC880"/>
<path d="M71.6914 24.0181C71.6914 24.5356 71.2728 24.9547 70.7547 24.9547C70.238 24.9547 69.8184 24.5356 69.8184 24.0181C69.8184 23.5009 70.238 23.082 70.7547 23.082C71.2728 23.082 71.6914 23.5009 71.6914 24.0181Z" fill="#1CC880"/>
<path d="M74.1669 24.0188C74.1669 24.5365 73.7468 24.9554 73.2295 24.9554C72.7127 24.9554 72.2935 24.5365 72.2935 24.0188C72.2935 23.5024 72.7127 23.0827 73.2295 23.0827C73.7468 23.0827 74.1669 23.5024 74.1669 24.0188Z" fill="#1CC880"/>
<path d="M79.1156 24.0019C79.1156 24.5186 78.6965 24.9381 78.179 24.9381C77.6623 24.9381 77.2432 24.5186 77.2432 24.0019C77.2432 23.4841 77.6623 23.065 78.179 23.065C78.6965 23.065 79.1156 23.4841 79.1156 24.0019Z" fill="#1CC880"/>
<path d="M81.5906 24.0604C81.5906 24.5775 81.1717 24.9965 80.6539 24.9965C80.1369 24.9965 79.7163 24.5775 79.7163 24.0604C79.7163 23.5438 80.1369 23.1246 80.6539 23.1246C81.1717 23.1246 81.5906 23.5438 81.5906 24.0604Z" fill="#1CC880"/>
<path d="M84.0659 24.0612C84.0659 24.5784 83.6462 24.9983 83.1291 24.9983C82.6115 24.9983 82.1919 24.5784 82.1919 24.0612C82.1919 23.5438 82.6115 23.1247 83.1291 23.1247C83.6462 23.1247 84.0659 23.5438 84.0659 24.0612Z" fill="#1CC880"/>
<path d="M7.34797 26.6808C7.34797 27.1987 6.92884 27.618 6.4115 27.618C5.89417 27.618 5.4751 27.1987 5.4751 26.6808C5.4751 26.1643 5.89417 25.7449 6.4115 25.7449C6.92884 25.7449 7.34797 26.1643 7.34797 26.6808Z" fill="#1CC880"/>
<path d="M9.82285 26.682C9.82285 27.2001 9.40329 27.619 8.88611 27.619C8.36884 27.619 7.94971 27.2001 7.94971 26.682C7.94971 26.1658 8.36884 25.7464 8.88611 25.7464C9.40329 25.7464 9.82285 26.1658 9.82285 26.682Z" fill="#1CC880"/>
<path d="M12.2973 26.696C12.2973 27.213 11.8777 27.6331 11.361 27.6331C10.8434 27.6331 10.4243 27.213 10.4243 26.696C10.4243 26.18 10.8434 25.7602 11.361 25.7602C11.8777 25.7602 12.2973 26.18 12.2973 26.696Z" fill="#1CC880"/>
<path d="M14.7718 26.6969C14.7718 27.2147 14.3526 27.6339 13.8358 27.6339C13.3186 27.6339 12.8989 27.2147 12.8989 26.6969C12.8989 26.1803 13.3186 25.761 13.8358 25.761C14.3526 25.761 14.7718 26.1803 14.7718 26.6969Z" fill="#1CC880"/>
<path d="M17.247 26.673C17.247 27.1911 16.8279 27.6102 16.3104 27.6102C15.7937 27.6102 15.374 27.1911 15.374 26.673C15.374 26.1566 15.7937 25.737 16.3104 25.737C16.8279 25.737 17.247 26.1566 17.247 26.673Z" fill="#1CC880"/>
<path d="M19.7216 26.6749C19.7216 27.1917 19.3028 27.6108 18.7858 27.6108C18.2682 27.6108 17.8491 27.1917 17.8491 26.6749C17.8491 26.1572 18.2682 25.7381 18.7858 25.7381C19.3028 25.7381 19.7216 26.1572 19.7216 26.6749Z" fill="#1CC880"/>
<path d="M22.1965 26.7042C22.1965 27.2208 21.777 27.6409 21.2599 27.6409C20.7423 27.6409 20.3232 27.2208 20.3232 26.7042C20.3232 26.1871 20.7423 25.7674 21.2599 25.7674C21.777 25.7674 22.1965 26.1871 22.1965 26.7042Z" fill="#1CC880"/>
<path d="M24.6707 26.705C24.6707 27.2213 24.2516 27.6416 23.735 27.6416C23.2175 27.6416 22.7979 27.2213 22.7979 26.705C22.7979 26.1881 23.2175 25.7686 23.735 25.7686C24.2516 25.7686 24.6707 26.1881 24.6707 26.705Z" fill="#1CC880"/>
<path d="M27.1454 26.6771C27.1454 27.1947 26.7262 27.6139 26.2096 27.6139C25.6919 27.6139 25.2729 27.1947 25.2729 26.6771C25.2729 26.1605 25.6919 25.7409 26.2096 25.7409C26.7262 25.7409 27.1454 26.1605 27.1454 26.6771Z" fill="#1CC880"/>
<path d="M56.8441 26.672C56.8441 27.189 56.4241 27.6083 55.9073 27.6083C55.389 27.6083 54.9707 27.189 54.9707 26.672C54.9707 26.1552 55.389 25.7358 55.9073 25.7358C56.4241 25.7358 56.8441 26.1552 56.8441 26.672Z" fill="#1CC880"/>
<path d="M59.3173 26.6729C59.3173 27.1907 58.899 27.6091 58.382 27.6091C57.8639 27.6091 57.4458 27.1907 57.4458 26.6729C57.4458 26.1555 57.8639 25.7363 58.382 25.7363C58.899 25.7363 59.3173 26.1555 59.3173 26.6729Z" fill="#1CC880"/>
<path d="M69.2181 26.6765C69.2181 27.1936 68.7981 27.6136 68.2815 27.6136C67.764 27.6136 67.3447 27.1936 67.3447 26.6765C67.3447 26.1596 67.764 25.7401 68.2815 25.7401C68.7981 25.7401 69.2181 26.1596 69.2181 26.6765Z" fill="#1CC880"/>
<path d="M71.6916 26.6853C71.6916 27.2022 71.2728 27.6219 70.7559 27.6219C70.2379 27.6219 69.8188 27.2022 69.8188 26.6853C69.8188 26.1683 70.2379 25.7487 70.7559 25.7487C71.2728 25.7487 71.6916 26.1683 71.6916 26.6853Z" fill="#1CC880"/>
<path d="M74.167 26.686C74.167 27.203 73.7478 27.6227 73.2307 27.6227C72.7135 27.6227 72.2944 27.203 72.2944 26.686C72.2944 26.1692 72.7135 25.7497 73.2307 25.7497C73.7478 25.7497 74.167 26.1692 74.167 26.686Z" fill="#1CC880"/>
<path d="M76.6418 26.6688C76.6418 27.1859 76.2217 27.6057 75.7043 27.6057C75.1872 27.6057 74.7681 27.1859 74.7681 26.6688C74.7681 26.1519 75.1872 25.7327 75.7043 25.7327C76.2217 25.7327 76.6418 26.1519 76.6418 26.6688Z" fill="#1CC880"/>
<path d="M79.116 26.6677C79.116 27.1853 78.6967 27.6044 78.1805 27.6044C77.6624 27.6044 77.2441 27.1853 77.2441 26.6677C77.2441 26.1512 77.6624 25.7312 78.1805 25.7312C78.6967 25.7312 79.116 26.1512 79.116 26.6677Z" fill="#1CC880"/>
<path d="M81.5907 26.7266C81.5907 27.2439 81.1719 27.663 80.6541 27.663C80.1371 27.663 79.7183 27.2439 79.7183 26.7266C79.7183 26.21 80.1371 25.7901 80.6541 25.7901C81.1719 25.7901 81.5907 26.21 81.5907 26.7266Z" fill="#1CC880"/>
<path d="M84.0659 26.7275C84.0659 27.2454 83.6466 27.6638 83.1291 27.6638C82.6133 27.6638 82.1919 27.2454 82.1919 26.7275C82.1919 26.2107 82.6133 25.7908 83.1291 25.7908C83.6466 25.7908 84.0659 26.2107 84.0659 26.7275Z" fill="#1CC880"/>
<path d="M7.34803 29.3483C7.34803 29.8658 6.92841 30.2849 6.41107 30.2849C5.89378 30.2849 5.47461 29.8658 5.47461 29.3483C5.47461 28.8317 5.89378 28.4125 6.41107 28.4125C6.92841 28.4125 7.34803 28.8317 7.34803 29.3483Z" fill="#1CC880"/>
<path d="M9.82252 29.3498C9.82252 29.8666 9.40296 30.286 8.88633 30.286C8.36856 30.286 7.94922 29.8666 7.94922 29.3498C7.94922 28.8317 8.36856 28.4129 8.88633 28.4129C9.40296 28.4129 9.82252 28.8317 9.82252 29.3498Z" fill="#1CC880"/>
<path d="M12.2974 29.3634C12.2974 29.8805 11.8777 30.3 11.3606 30.3C10.8432 30.3 10.4238 29.8805 10.4238 29.3634C10.4238 28.8463 10.8432 28.4272 11.3606 28.4272C11.8777 28.4272 12.2974 28.8463 12.2974 29.3634Z" fill="#1CC880"/>
<path d="M14.771 29.3644C14.771 29.8818 14.3523 30.3008 13.8349 30.3008C13.3177 30.3008 12.8984 29.8818 12.8984 29.3644C12.8984 28.8478 13.3177 28.4279 13.8349 28.4279C14.3523 28.4279 14.771 28.8478 14.771 29.3644Z" fill="#1CC880"/>
<path d="M17.247 29.3402C17.247 29.8582 16.8273 30.2769 16.3103 30.2769C15.7926 30.2769 15.3735 29.8582 15.3735 29.3402C15.3735 28.8235 15.7926 28.4044 16.3103 28.4044C16.8273 28.4044 17.247 28.8235 17.247 29.3402Z" fill="#1CC880"/>
<path d="M19.7216 29.3411C19.7216 29.8587 19.3023 30.2783 18.7849 30.2783C18.2671 30.2783 17.8491 29.8587 17.8491 29.3411C17.8491 28.8247 18.2671 28.4049 18.7849 28.4049C19.3023 28.4049 19.7216 28.8247 19.7216 29.3411Z" fill="#1CC880"/>
<path d="M22.1962 29.3707C22.1962 29.8879 21.7769 30.3074 21.2598 30.3074C20.7423 30.3074 20.3228 29.8879 20.3228 29.3707C20.3228 28.8542 20.7423 28.4349 21.2598 28.4349C21.7769 28.4349 22.1962 28.8542 22.1962 29.3707Z" fill="#1CC880"/>
<path d="M24.6707 29.3723C24.6707 29.889 24.2512 30.3081 23.7341 30.3081C23.2165 30.3081 22.7979 29.889 22.7979 29.3723C22.7979 28.8547 23.2165 28.4359 23.7341 28.4359C24.2512 28.4359 24.6707 28.8547 24.6707 29.3723Z" fill="#1CC880"/>
<path d="M59.3173 29.3395C59.3173 29.8576 58.8982 30.2769 58.3821 30.2769C57.864 30.2769 57.4443 29.8576 57.4443 29.3395C57.4443 28.8229 57.864 28.4041 58.3821 28.4041C58.8982 28.4041 59.3173 28.8229 59.3173 29.3395Z" fill="#1CC880"/>
<path d="M61.7928 29.3679C61.7928 29.8847 61.374 30.3044 60.8561 30.3044C60.3381 30.3044 59.9194 29.8847 59.9194 29.3679C59.9194 28.8507 60.3381 28.4309 60.8561 28.4309C61.374 28.4309 61.7928 28.8507 61.7928 29.3679Z" fill="#1CC880"/>
<path d="M64.2673 29.3684C64.2673 29.8855 63.8478 30.3052 63.3301 30.3052C62.8131 30.3052 62.394 29.8855 62.394 29.3684C62.394 28.8513 62.8131 28.4318 63.3301 28.4318C63.8478 28.4318 64.2673 28.8513 64.2673 29.3684Z" fill="#1CC880"/>
<path d="M76.64 29.3357C76.64 29.8534 76.2217 30.2726 75.7043 30.2726C75.1866 30.2726 74.7681 29.8534 74.7681 29.3357C74.7681 28.819 75.1866 28.3994 75.7043 28.3994C76.2217 28.3994 76.64 28.819 76.64 29.3357Z" fill="#1CC880"/>
<path d="M79.1156 29.335C79.1156 29.8521 78.6965 30.2716 78.179 30.2716C77.6623 30.2716 77.2432 29.8521 77.2432 29.335C77.2432 28.8182 77.6623 28.3986 78.179 28.3986C78.6965 28.3986 79.1156 28.8182 79.1156 29.335Z" fill="#1CC880"/>
<path d="M81.5906 29.3943C81.5906 29.9113 81.1717 30.3309 80.6539 30.3309C80.1369 30.3309 79.7163 29.9113 79.7163 29.3943C79.7163 28.8772 80.1369 28.4574 80.6539 28.4574C81.1717 28.4574 81.5906 28.8772 81.5906 29.3943Z" fill="#1CC880"/>
<path d="M84.0659 29.395C84.0659 29.9126 83.6462 30.3317 83.1291 30.3317C82.6115 30.3317 82.1919 29.9126 82.1919 29.395C82.1919 28.8786 82.6115 28.4588 83.1291 28.4588C83.6462 28.4588 84.0659 28.8786 84.0659 29.395Z" fill="#1CC880"/>
<path d="M7.34803 32.0143C7.34803 32.532 6.92841 32.9518 6.41107 32.9518C5.89378 32.9518 5.47461 32.532 5.47461 32.0143C5.47461 31.4984 5.89378 31.0791 6.41107 31.0791C6.92841 31.0791 7.34803 31.4984 7.34803 32.0143Z" fill="#1CC880"/>
<path d="M9.82252 32.0162C9.82252 32.5334 9.40296 32.9529 8.88633 32.9529C8.36856 32.9529 7.94922 32.5334 7.94922 32.0162C7.94922 31.499 8.36856 31.0799 8.88633 31.0799C9.40296 31.0799 9.82252 31.499 9.82252 32.0162Z" fill="#1CC880"/>
<path d="M12.2974 32.0301C12.2974 32.5472 11.8777 32.9672 11.3606 32.9672C10.8432 32.9672 10.4238 32.5472 10.4238 32.0301C10.4238 31.5131 10.8432 31.0936 11.3606 31.0936C11.8777 31.0936 12.2974 31.5131 12.2974 32.0301Z" fill="#1CC880"/>
<path d="M14.771 32.031C14.771 32.5484 14.3523 32.9679 13.8349 32.9679C13.3177 32.9679 12.8984 32.5484 12.8984 32.031C12.8984 31.5143 13.3177 31.0948 13.8349 31.0948C14.3523 31.0948 14.771 31.5143 14.771 32.031Z" fill="#1CC880"/>
<path d="M17.247 32.0071C17.247 32.5242 16.8273 32.944 16.3103 32.944C15.7926 32.944 15.3735 32.5242 15.3735 32.0071C15.3735 31.4899 15.7926 31.0708 16.3103 31.0708C16.8273 31.0708 17.247 31.4899 17.247 32.0071Z" fill="#1CC880"/>
<path d="M19.7216 32.0075C19.7216 32.5256 19.3023 32.9447 18.7849 32.9447C18.2671 32.9447 17.8491 32.5256 17.8491 32.0075C17.8491 31.4912 18.2671 31.0716 18.7849 31.0716C19.3023 31.0716 19.7216 31.4912 19.7216 32.0075Z" fill="#1CC880"/>
<path d="M22.1962 32.0376C22.1962 32.5545 21.7769 32.974 21.2598 32.974C20.7423 32.974 20.3228 32.5545 20.3228 32.0376C20.3228 31.5212 20.7423 31.1009 21.2598 31.1009C21.7769 31.1009 22.1962 31.5212 22.1962 32.0376Z" fill="#1CC880"/>
<path d="M56.8431 32.0058C56.8431 32.5224 56.424 32.9419 55.9059 32.9419C55.3889 32.9419 54.9702 32.5224 54.9702 32.0058C54.9702 31.4885 55.3889 31.0692 55.9059 31.0692C56.424 31.0692 56.8431 31.4885 56.8431 32.0058Z" fill="#1CC880"/>
<path d="M59.3173 32.0064C59.3173 32.5237 58.8982 32.9434 58.3821 32.9434C57.864 32.9434 57.4443 32.5237 57.4443 32.0064C57.4443 31.4899 57.864 31.0704 58.3821 31.0704C58.8982 31.0704 59.3173 31.4899 59.3173 32.0064Z" fill="#1CC880"/>
<path d="M61.7928 32.0339C61.7928 32.5515 61.374 32.9706 60.8561 32.9706C60.3381 32.9706 59.9194 32.5515 59.9194 32.0339C59.9194 31.5172 60.3381 31.098 60.8561 31.098C61.374 31.098 61.7928 31.5172 61.7928 32.0339Z" fill="#1CC880"/>
<path d="M64.2673 32.0348C64.2673 32.5523 63.8478 32.9714 63.3301 32.9714C62.8131 32.9714 62.394 32.5523 62.394 32.0348C62.394 31.5181 62.8131 31.0987 63.3301 31.0987C63.8478 31.0987 64.2673 31.5181 64.2673 32.0348Z" fill="#1CC880"/>
<path d="M66.7427 32.0089C66.7427 32.5262 66.3225 32.9454 65.8055 32.9454C65.2884 32.9454 64.8691 32.5262 64.8691 32.0089C64.8691 31.4924 65.2884 31.0733 65.8055 31.0733C66.3225 31.0733 66.7427 31.4924 66.7427 32.0089Z" fill="#1CC880"/>
<path d="M69.2158 32.0099C69.2158 32.5276 68.7977 32.9467 68.2801 32.9467C67.7624 32.9467 67.3447 32.5276 67.3447 32.0099C67.3447 31.493 67.7624 31.0741 68.2801 31.0741C68.7977 31.0741 69.2158 31.493 69.2158 32.0099Z" fill="#1CC880"/>
<path d="M71.6914 32.0181C71.6914 32.5358 71.2728 32.9553 70.7547 32.9553C70.238 32.9553 69.8184 32.5358 69.8184 32.0181C69.8184 31.5015 70.238 31.0822 70.7547 31.0822C71.2728 31.0822 71.6914 31.5015 71.6914 32.0181Z" fill="#1CC880"/>
<path d="M74.1669 32.0197C74.1669 32.5367 73.7468 32.9562 73.2295 32.9562C72.7127 32.9562 72.2935 32.5367 72.2935 32.0197C72.2935 31.5027 72.7127 31.0837 73.2295 31.0837C73.7468 31.0837 74.1669 31.5027 74.1669 32.0197Z" fill="#1CC880"/>
<path d="M76.64 32.0024C76.64 32.5197 76.2217 32.9392 75.7043 32.9392C75.1866 32.9392 74.7681 32.5197 74.7681 32.0024C74.7681 31.4859 75.1866 31.0663 75.7043 31.0663C76.2217 31.0663 76.64 31.4859 76.64 32.0024Z" fill="#1CC880"/>
<path d="M79.1156 32.0019C79.1156 32.5185 78.6965 32.9388 78.179 32.9388C77.6623 32.9388 77.2432 32.5185 77.2432 32.0019C77.2432 31.4845 77.6623 31.0653 78.179 31.0653C78.6965 31.0653 79.1156 31.4845 79.1156 32.0019Z" fill="#1CC880"/>
<path d="M81.5906 32.0611C81.5906 32.5777 81.1717 32.9971 80.6539 32.9971C80.1369 32.9971 79.7163 32.5777 79.7163 32.0611C79.7163 31.5433 80.1369 31.1243 80.6539 31.1243C81.1717 31.1243 81.5906 31.5433 81.5906 32.0611Z" fill="#1CC880"/>
<path d="M84.0659 32.0612C84.0659 32.5786 83.6462 32.9985 83.1291 32.9985C82.6115 32.9985 82.1919 32.5786 82.1919 32.0612C82.1919 31.5453 82.6115 31.125 83.1291 31.125C83.6462 31.125 84.0659 31.5453 84.0659 32.0612Z" fill="#1CC880"/>
<path d="M7.34803 34.6823C7.34803 35.1993 6.92841 35.6189 6.41155 35.6189C5.89378 35.6189 5.47461 35.1993 5.47461 34.6823C5.47461 34.1655 5.89378 33.7459 6.41155 33.7459C6.92841 33.7459 7.34803 34.1655 7.34803 34.6823Z" fill="#1CC880"/>
<path d="M9.82252 34.6828C9.82252 35.2002 9.40296 35.6204 8.88633 35.6204C8.36856 35.6204 7.94922 35.2002 7.94922 34.6828C7.94922 34.1662 8.36856 33.7471 8.88633 33.7471C9.40296 33.7471 9.82252 34.1662 9.82252 34.6828Z" fill="#1CC880"/>
<path d="M12.2976 34.697C12.2976 35.2144 11.878 35.6338 11.3612 35.6338C10.8434 35.6338 10.4243 35.2144 10.4243 34.697C10.4243 34.1804 10.8434 33.7606 11.3612 33.7606C11.878 33.7606 12.2976 34.1804 12.2976 34.697Z" fill="#1CC880"/>
<path d="M19.7216 34.6754C19.7216 35.192 19.3023 35.6113 18.7858 35.6113C18.2682 35.6113 17.8491 35.192 17.8491 34.6754C17.8491 34.1589 18.2682 33.739 18.7858 33.739C19.3023 33.739 19.7216 34.1589 19.7216 34.6754Z" fill="#1CC880"/>
<path d="M54.3684 34.6946C54.3684 35.2115 53.9483 35.6311 53.4318 35.6311C52.9142 35.6311 52.4951 35.2115 52.4951 34.6946C52.4951 34.1773 52.9142 33.7582 53.4318 33.7582C53.9483 33.7582 54.3684 34.1773 54.3684 34.6946Z" fill="#1CC880"/>
<path d="M56.8431 34.6724C56.8431 35.1899 56.4241 35.609 55.9071 35.609C55.389 35.609 54.9707 35.1899 54.9707 34.6724C54.9707 34.1557 55.389 33.7363 55.9071 33.7363C56.4241 33.7363 56.8431 34.1557 56.8431 34.6724Z" fill="#1CC880"/>
<path d="M59.3173 34.6735C59.3173 35.1909 58.899 35.6108 58.382 35.6108C57.8639 35.6108 57.4448 35.1909 57.4448 34.6735C57.4448 34.1571 57.8639 33.7376 58.382 33.7376C58.899 33.7376 59.3173 34.1571 59.3173 34.6735Z" fill="#1CC880"/>
<path d="M61.7928 34.7011C61.7928 35.2186 61.374 35.6377 60.8561 35.6377C60.3381 35.6377 59.9194 35.2186 59.9194 34.7011C59.9194 34.1848 60.3381 33.7647 60.8561 33.7647C61.374 33.7647 61.7928 34.1848 61.7928 34.7011Z" fill="#1CC880"/>
<path d="M64.2679 34.7024C64.2679 35.2194 63.8484 35.639 63.3312 35.639C62.8137 35.639 62.395 35.2194 62.395 34.7024C62.395 34.1851 62.8137 33.7653 63.3312 33.7653C63.8484 33.7653 64.2679 34.1851 64.2679 34.7024Z" fill="#1CC880"/>
<path d="M66.7427 34.6764C66.7427 35.1939 66.3235 35.613 65.8055 35.613C65.2893 35.613 64.8701 35.1939 64.8701 34.6764C64.8701 34.1594 65.2893 33.7393 65.8055 33.7393C66.3235 33.7393 66.7427 34.1594 66.7427 34.6764Z" fill="#1CC880"/>
<path d="M69.2176 34.6769C69.2176 35.1946 68.7977 35.6143 68.2815 35.6143C67.7624 35.6143 67.3447 35.1946 67.3447 34.6769C67.3447 34.1602 67.7624 33.7407 68.2815 33.7407C68.7977 33.7407 69.2176 34.1602 69.2176 34.6769Z" fill="#1CC880"/>
<path d="M71.6913 34.6858C71.6913 35.2026 71.2728 35.6227 70.7551 35.6227C70.2379 35.6227 69.8188 35.2026 69.8188 34.6858C69.8188 34.1693 70.2379 33.7493 70.7551 33.7493C71.2728 33.7493 71.6913 34.1693 71.6913 34.6858Z" fill="#1CC880"/>
<path d="M74.1669 34.6867C74.1669 35.2043 73.7477 35.6233 73.2296 35.6233C72.7135 35.6233 72.2939 35.2043 72.2939 34.6867C72.2939 34.1699 72.7135 33.75 73.2296 33.75C73.7477 33.75 74.1669 34.1699 74.1669 34.6867Z" fill="#1CC880"/>
<path d="M76.6415 34.6695C76.6415 35.1867 76.2217 35.6063 75.7043 35.6063C75.1866 35.6063 74.7681 35.1867 74.7681 34.6695C74.7681 34.153 75.1866 33.7336 75.7043 33.7336C76.2217 33.7336 76.6415 34.153 76.6415 34.6695Z" fill="#1CC880"/>
<path d="M79.1158 34.6687C79.1158 35.1859 78.6967 35.6056 78.1805 35.6056C77.6624 35.6056 77.2441 35.1859 77.2441 34.6687C77.2441 34.152 77.6624 33.7322 78.1805 33.7322C78.6967 33.7322 79.1158 34.152 79.1158 34.6687Z" fill="#1CC880"/>
<path d="M81.5907 34.7279C81.5907 35.2449 81.1719 35.6639 80.6541 35.6639C80.1371 35.6639 79.7183 35.2449 79.7183 34.7279C79.7183 34.2113 80.1371 33.7918 80.6541 33.7918C81.1719 33.7918 81.5907 34.2113 81.5907 34.7279Z" fill="#1CC880"/>
<path d="M84.0659 34.7285C84.0659 35.246 83.6462 35.6655 83.1291 35.6655C82.6115 35.6655 82.1919 35.246 82.1919 34.7285C82.1919 34.212 82.6115 33.7929 83.1291 33.7929C83.6462 33.7929 84.0659 34.212 84.0659 34.7285Z" fill="#1CC880"/>
<path d="M9.82252 37.3497C9.82252 37.8677 9.40296 38.2865 8.88633 38.2865C8.36856 38.2865 7.94922 37.8677 7.94922 37.3497C7.94922 36.8336 8.36856 36.4135 8.88633 36.4135C9.40296 36.4135 9.82252 36.8336 9.82252 37.3497Z" fill="#1CC880"/>
<path d="M12.2974 37.3634C12.2974 37.8812 11.8777 38.3003 11.3606 38.3003C10.8432 38.3003 10.4238 37.8812 10.4238 37.3634C10.4238 36.8468 10.8432 36.4276 11.3606 36.4276C11.8777 36.4276 12.2974 36.8468 12.2974 37.3634Z" fill="#1CC880"/>
<path d="M54.368 37.3615C54.368 37.8778 53.9483 38.2976 53.4313 38.2976C52.9142 38.2976 52.4951 37.8778 52.4951 37.3615C52.4951 36.8438 52.9142 36.4243 53.4313 36.4243C53.9483 36.4243 54.368 36.8438 54.368 37.3615Z" fill="#1CC880"/>
<path d="M56.8431 37.3392C56.8431 37.8568 56.424 38.276 55.9059 38.276C55.3889 38.276 54.9702 37.8568 54.9702 37.3392C54.9702 36.8224 55.3889 36.4031 55.9059 36.4031C56.424 36.4031 56.8431 36.8224 56.8431 37.3392Z" fill="#1CC880"/>
<path d="M59.3173 37.3402C59.3173 37.8577 58.8982 38.2771 58.3821 38.2771C57.864 38.2771 57.4443 37.8577 57.4443 37.3402C57.4443 36.8233 57.864 36.404 58.3821 36.404C58.8982 36.404 59.3173 36.8233 59.3173 37.3402Z" fill="#1CC880"/>
<path d="M61.7928 37.367C61.7928 37.8845 61.374 38.3044 60.8561 38.3044C60.3381 38.3044 59.9194 37.8845 59.9194 37.367C59.9194 36.8514 60.3381 36.431 60.8561 36.431C61.374 36.431 61.7928 36.8514 61.7928 37.367Z" fill="#1CC880"/>
<path d="M64.2673 37.3687C64.2673 37.8864 63.8478 38.3062 63.3301 38.3062C62.8131 38.3062 62.394 37.8864 62.394 37.3687C62.394 36.852 62.8131 36.4326 63.3301 36.4326C63.8478 36.4326 64.2673 36.852 64.2673 37.3687Z" fill="#1CC880"/>
<path d="M66.7427 37.3429C66.7427 37.8598 66.3225 38.2795 65.8055 38.2795C65.2884 38.2795 64.8691 37.8598 64.8691 37.3429C64.8691 36.8258 65.2884 36.4064 65.8055 36.4064C66.3225 36.4064 66.7427 36.8258 66.7427 37.3429Z" fill="#1CC880"/>
<path d="M69.2158 37.3436C69.2158 37.8616 68.7977 38.2804 68.2801 38.2804C67.7624 38.2804 67.3447 37.8616 67.3447 37.3436C67.3447 36.8272 67.7624 36.4071 68.2801 36.4071C68.7977 36.4071 69.2158 36.8272 69.2158 37.3436Z" fill="#1CC880"/>
<path d="M71.6914 37.3521C71.6914 37.8695 71.2728 38.2893 70.7547 38.2893C70.238 38.2893 69.8184 37.8695 69.8184 37.3521C69.8184 36.8353 70.238 36.4162 70.7547 36.4162C71.2728 36.4162 71.6914 36.8353 71.6914 37.3521Z" fill="#1CC880"/>
<path d="M74.1669 37.3532C74.1669 37.8704 73.7468 38.2903 73.2295 38.2903C72.7127 38.2903 72.2935 37.8704 72.2935 37.3532C72.2935 36.8369 72.7127 36.4171 73.2295 36.4171C73.7468 36.4171 74.1669 36.8369 74.1669 37.3532Z" fill="#1CC880"/>
<path d="M76.64 37.3366C76.64 37.8533 76.2217 38.2732 75.7043 38.2732C75.1866 38.2732 74.7681 37.8533 74.7681 37.3366C74.7681 36.8191 75.1866 36.4003 75.7043 36.4003C76.2217 36.4003 76.64 36.8191 76.64 37.3366Z" fill="#1CC880"/>
<path d="M79.1156 37.3354C79.1156 37.8527 78.6965 38.2715 78.179 38.2715C77.6623 38.2715 77.2432 37.8527 77.2432 37.3354C77.2432 36.8191 77.6623 36.3989 78.179 36.3989C78.6965 36.3989 79.1156 36.8191 79.1156 37.3354Z" fill="#1CC880"/>
<path d="M81.5906 37.3939C81.5906 37.9119 81.1717 38.3308 80.6539 38.3308C80.1369 38.3308 79.7163 37.9119 79.7163 37.3939C79.7163 36.8776 80.1369 36.4581 80.6539 36.4581C81.1717 36.4581 81.5906 36.8776 81.5906 37.3939Z" fill="#1CC880"/>
<path d="M84.0659 37.3952C84.0659 37.9123 83.6462 38.3317 83.1291 38.3317C82.6115 38.3317 82.1919 37.9123 82.1919 37.3952C82.1919 36.878 82.6115 36.4589 83.1291 36.4589C83.6462 36.4589 84.0659 36.878 84.0659 37.3952Z" fill="#1CC880"/>
<path d="M9.82252 40.0175C9.82252 40.5352 9.40296 40.955 8.88633 40.955C8.36856 40.955 7.94922 40.5352 7.94922 40.0175C7.94922 39.5006 8.36856 39.0808 8.88633 39.0808C9.40296 39.0808 9.82252 39.5006 9.82252 40.0175Z" fill="#1CC880"/>
<path d="M12.2976 40.0319C12.2976 40.5495 11.878 40.9692 11.3612 40.9692C10.8434 40.9692 10.4243 40.5495 10.4243 40.0319C10.4243 39.5144 10.8434 39.0951 11.3612 39.0951C11.878 39.0951 12.2976 39.5144 12.2976 40.0319Z" fill="#1CC880"/>
<path d="M14.7716 40.0326C14.7716 40.55 14.3526 40.97 13.8351 40.97C13.3179 40.97 12.8989 40.55 12.8989 40.0326C12.8989 39.5159 13.3179 39.0959 13.8351 39.0959C14.3526 39.0959 14.7716 39.5159 14.7716 40.0326Z" fill="#1CC880"/>
<path d="M54.3684 40.0286C54.3684 40.5462 53.9483 40.9663 53.4318 40.9663C52.9142 40.9663 52.4951 40.5462 52.4951 40.0286C52.4951 39.512 52.9142 39.0918 53.4318 39.0918C53.9483 39.0918 54.3684 39.512 54.3684 40.0286Z" fill="#1CC880"/>
<path d="M56.8431 40.007C56.8431 40.5244 56.4241 40.9442 55.9071 40.9442C55.389 40.9442 54.9707 40.5244 54.9707 40.007C54.9707 39.4906 55.389 39.0701 55.9071 39.0701C56.4241 39.0701 56.8431 39.4906 56.8431 40.007Z" fill="#1CC880"/>
<path d="M59.3173 40.0076C59.3173 40.5257 58.899 40.9458 58.382 40.9458C57.8639 40.9458 57.4448 40.5257 57.4448 40.0076C57.4448 39.4913 57.8639 39.071 58.382 39.071C58.899 39.071 59.3173 39.4913 59.3173 40.0076Z" fill="#1CC880"/>
<path d="M61.7928 40.0355C61.7928 40.5529 61.374 40.9731 60.8561 40.9731C60.3381 40.9731 59.9194 40.5529 59.9194 40.0355C59.9194 39.5183 60.3381 39.099 60.8561 39.099C61.374 39.099 61.7928 39.5183 61.7928 40.0355Z" fill="#1CC880"/>
<path d="M64.2679 40.0366C64.2679 40.5544 63.8484 40.9738 63.3312 40.9738C62.8137 40.9738 62.395 40.5544 62.395 40.0366C62.395 39.52 62.8137 39.0999 63.3312 39.0999C63.8484 39.0999 64.2679 39.52 64.2679 40.0366Z" fill="#1CC880"/>
<path d="M66.7427 40.0105C66.7427 40.5284 66.3235 40.9475 65.8055 40.9475C65.2893 40.9475 64.8701 40.5284 64.8701 40.0105C64.8701 39.4935 65.2893 39.0744 65.8055 39.0744C66.3235 39.0744 66.7427 39.4935 66.7427 40.0105Z" fill="#1CC880"/>
<path d="M69.2176 40.0116C69.2176 40.5299 68.7977 40.949 68.2815 40.949C67.7624 40.949 67.3447 40.5299 67.3447 40.0116C67.3447 39.4945 67.7624 39.0753 68.2815 39.0753C68.7977 39.0753 69.2176 39.4945 69.2176 40.0116Z" fill="#1CC880"/>
<path d="M71.6913 40.0205C71.6913 40.5378 71.2728 40.9573 70.7551 40.9573C70.2379 40.9573 69.8188 40.5378 69.8188 40.0205C69.8188 39.5024 70.2379 39.0836 70.7551 39.0836C71.2728 39.0836 71.6913 39.5024 71.6913 40.0205Z" fill="#1CC880"/>
<path d="M74.1669 40.0206C74.1669 40.5379 73.7477 40.9583 73.2296 40.9583C72.7135 40.9583 72.2939 40.5379 72.2939 40.0206C72.2939 39.5038 72.7135 39.0844 73.2296 39.0844C73.7477 39.0844 74.1669 39.5038 74.1669 40.0206Z" fill="#1CC880"/>
<path d="M76.6415 40.0041C76.6415 40.5216 76.2217 40.9414 75.7043 40.9414C75.1866 40.9414 74.7681 40.5216 74.7681 40.0041C74.7681 39.4869 75.1866 39.0673 75.7043 39.0673C76.2217 39.0673 76.6415 39.4869 76.6415 40.0041Z" fill="#1CC880"/>
<path d="M79.1158 40.0029C79.1158 40.521 78.6967 40.9398 78.1805 40.9398C77.6624 40.9398 77.2441 40.521 77.2441 40.0029C77.2441 39.4859 77.6624 39.0665 78.1805 39.0665C78.6967 39.0665 79.1158 39.4859 79.1158 40.0029Z" fill="#1CC880"/>
<path d="M81.5907 40.0619C81.5907 40.5795 81.1719 40.9993 80.6541 40.9993C80.1371 40.9993 79.7183 40.5795 79.7183 40.0619C79.7183 39.5451 80.1371 39.1253 80.6541 39.1253C81.1719 39.1253 81.5907 39.5451 81.5907 40.0619Z" fill="#1CC880"/>
<path d="M84.0659 40.0629C84.0659 40.5809 83.6462 41 83.1291 41C82.6115 41 82.1919 40.5809 82.1919 40.0629C82.1919 39.5462 82.6115 39.1262 83.1291 39.1262C83.6462 39.1262 84.0659 39.5462 84.0659 40.0629Z" fill="#1CC880"/>
<path d="M14.7716 42.6993C14.7716 43.217 14.3526 43.636 13.8351 43.636C13.3179 43.636 12.8989 43.217 12.8989 42.6993C12.8989 42.183 13.3179 41.7634 13.8351 41.7634C14.3526 41.7634 14.7716 42.183 14.7716 42.6993Z" fill="#1CC880"/>
<path d="M17.247 42.6754C17.247 43.1931 16.8274 43.6122 16.3104 43.6122C15.7927 43.6122 15.374 43.1931 15.374 42.6754C15.374 42.1588 15.7927 41.7395 16.3104 41.7395C16.8274 41.7395 17.247 42.1588 17.247 42.6754Z" fill="#1CC880"/>
<path d="M51.8938 42.6951C51.8938 43.2128 51.4743 43.6317 50.9573 43.6317C50.4396 43.6317 50.0205 43.2128 50.0205 42.6951C50.0205 42.1781 50.4396 41.7591 50.9573 41.7591C51.4743 41.7591 51.8938 42.1781 51.8938 42.6951Z" fill="#1CC880"/>
<path d="M54.3684 42.6957C54.3684 43.2135 53.9483 43.6324 53.4318 43.6324C52.9142 43.6324 52.4951 43.2135 52.4951 42.6957C52.4951 42.1781 52.9142 41.76 53.4318 41.76C53.9483 41.76 54.3684 42.1781 54.3684 42.6957Z" fill="#1CC880"/>
<path d="M56.8431 42.6742C56.8431 43.1912 56.4241 43.6108 55.9071 43.6108C55.389 43.6108 54.9707 43.1912 54.9707 42.6742C54.9707 42.1572 55.389 41.7381 55.9071 41.7381C56.4241 41.7381 56.8431 42.1572 56.8431 42.6742Z" fill="#1CC880"/>
<path d="M59.3173 42.6747C59.3173 43.1921 58.899 43.6122 58.382 43.6122C57.8639 43.6122 57.4448 43.1921 57.4448 42.6747C57.4448 42.1588 57.8639 41.7381 58.382 41.7381C58.899 41.7381 59.3173 42.1588 59.3173 42.6747Z" fill="#1CC880"/>
<path d="M61.7928 42.7025C61.7928 43.22 61.374 43.64 60.8561 43.64C60.3381 43.64 59.9194 43.22 59.9194 42.7025C59.9194 42.1855 60.3381 41.7665 60.8561 41.7665C61.374 41.7665 61.7928 42.1855 61.7928 42.7025Z" fill="#1CC880"/>
<path d="M64.2679 42.7041C64.2679 43.2206 63.8484 43.64 63.3312 43.64C62.8137 43.64 62.395 43.2206 62.395 42.7041C62.395 42.1864 62.8137 41.767 63.3312 41.767C63.8484 41.767 64.2679 42.1864 64.2679 42.7041Z" fill="#1CC880"/>
<path d="M66.7427 42.6781C66.7427 43.1951 66.3235 43.6149 65.8055 43.6149C65.2893 43.6149 64.8701 43.1951 64.8701 42.6781C64.8701 42.161 65.2893 41.7415 65.8055 41.7415C66.3235 41.7415 66.7427 42.161 66.7427 42.6781Z" fill="#1CC880"/>
<path d="M69.2176 42.6788C69.2176 43.196 68.7977 43.6155 68.2815 43.6155C67.7624 43.6155 67.3447 43.196 67.3447 42.6788C67.3447 42.1617 67.7624 41.7426 68.2815 41.7426C68.7977 41.7426 69.2176 42.1617 69.2176 42.6788Z" fill="#1CC880"/>
<path d="M71.6913 42.6868C71.6913 43.2051 71.2728 43.6241 70.7551 43.6241C70.2379 43.6241 69.8188 43.2051 69.8188 42.6868C69.8188 42.1708 70.2379 41.751 70.7551 41.751C71.2728 41.751 71.6913 42.1708 71.6913 42.6868Z" fill="#1CC880"/>
<path d="M74.1669 42.6883C74.1669 43.2058 73.7477 43.6251 73.2296 43.6251C72.7135 43.6251 72.2939 43.2058 72.2939 42.6883C72.2939 42.1708 72.7135 41.7517 73.2296 41.7517C73.7477 41.7517 74.1669 42.1708 74.1669 42.6883Z" fill="#1CC880"/>
<path d="M76.6415 42.6709C76.6415 43.1888 76.2217 43.6078 75.7043 43.6078C75.1866 43.6078 74.7681 43.1888 74.7681 42.6709C74.7681 42.1543 75.1866 41.7348 75.7043 41.7348C76.2217 41.7348 76.6415 42.1543 76.6415 42.6709Z" fill="#1CC880"/>
<path d="M79.1158 42.6703C79.1158 43.187 78.6967 43.6069 78.1805 43.6069C77.6624 43.6069 77.2441 43.187 77.2441 42.6703C77.2441 42.1537 77.6624 41.7341 78.1805 41.7341C78.6967 41.7341 79.1158 42.1537 79.1158 42.6703Z" fill="#1CC880"/>
<path d="M81.5907 42.7294C81.5907 43.2461 81.1719 43.6658 80.6541 43.6658C80.1371 43.6658 79.7183 43.2461 79.7183 42.7294C79.7183 42.2121 80.1371 41.7928 80.6541 41.7928C81.1719 41.7928 81.5907 42.2121 81.5907 42.7294Z" fill="#1CC880"/>
<path d="M84.0659 42.73C84.0659 43.2469 83.6462 43.6659 83.1291 43.6659C82.6115 43.6659 82.1919 43.2469 82.1919 42.73C82.1919 42.2135 82.6115 41.794 83.1291 41.794C83.6462 41.794 84.0659 42.2135 84.0659 42.73Z" fill="#1CC880"/>
<path d="M17.247 45.3426C17.247 45.8605 16.8274 46.2799 16.3104 46.2799C15.7927 46.2799 15.374 45.8605 15.374 45.3426C15.374 44.826 15.7927 44.4065 16.3104 44.4065C16.8274 44.4065 17.247 44.826 17.247 45.3426Z" fill="#1CC880"/>
<path d="M22.1965 45.374C22.1965 45.8909 21.777 46.3098 21.2599 46.3098C20.7423 46.3098 20.3232 45.8909 20.3232 45.374C20.3232 44.8565 20.7423 44.4372 21.2599 44.4372C21.777 44.4372 22.1965 44.8565 22.1965 45.374Z" fill="#1CC880"/>
<path d="M24.6707 45.374C24.6707 45.8915 24.2516 46.3112 23.7341 46.3112C23.2175 46.3112 22.7979 45.8915 22.7979 45.374C22.7979 44.8571 23.2175 44.4377 23.7341 44.4377C24.2516 44.4377 24.6707 44.8571 24.6707 45.374Z" fill="#1CC880"/>
<path d="M54.3684 45.3627C54.3684 45.8799 53.9483 46.2994 53.4318 46.2994C52.9142 46.2994 52.4951 45.8799 52.4951 45.3627C52.4951 44.8461 52.9142 44.4264 53.4318 44.4264C53.9483 44.4264 54.3684 44.8461 54.3684 45.3627Z" fill="#1CC880"/>
<path d="M56.8431 45.3412C56.8431 45.8583 56.4241 46.278 55.9071 46.278C55.389 46.278 54.9707 45.8583 54.9707 45.3412C54.9707 44.824 55.389 44.4052 55.9071 44.4052C56.4241 44.4052 56.8431 44.824 56.8431 45.3412Z" fill="#1CC880"/>
<path d="M59.3173 45.3417C59.3173 45.8598 58.899 46.2792 58.382 46.2792C57.8639 46.2792 57.4448 45.8598 57.4448 45.3417C57.4448 44.826 57.8639 44.4065 58.382 44.4065C58.899 44.4065 59.3173 44.826 59.3173 45.3417Z" fill="#1CC880"/>
<path d="M61.7928 45.3699C61.7928 45.8871 61.374 46.306 60.8561 46.306C60.3381 46.306 59.9194 45.8871 59.9194 45.3699C59.9194 44.8536 60.3381 44.4337 60.8561 44.4337C61.374 44.4337 61.7928 44.8536 61.7928 45.3699Z" fill="#1CC880"/>
<path d="M64.2679 45.3711C64.2679 45.8877 63.8484 46.3079 63.3312 46.3079C62.8137 46.3079 62.395 45.8877 62.395 45.3711C62.395 44.8541 62.8137 44.4342 63.3312 44.4342C63.8484 44.4342 64.2679 44.8541 64.2679 45.3711Z" fill="#1CC880"/>
<path d="M66.7427 45.3445C66.7427 45.862 66.3235 46.2821 65.8055 46.2821C65.2893 46.2821 64.8701 45.862 64.8701 45.3445C64.8701 44.8279 65.2893 44.4079 65.8055 44.4079C66.3235 44.4079 66.7427 44.8279 66.7427 45.3445Z" fill="#1CC880"/>
<path d="M69.2176 45.3464C69.2176 45.863 68.7977 46.2831 68.2815 46.2831C67.7624 46.2831 67.3447 45.863 67.3447 45.3464C67.3447 44.8288 67.7624 44.4104 68.2815 44.4104C68.7977 44.4104 69.2176 44.8288 69.2176 45.3464Z" fill="#1CC880"/>
<path d="M71.6913 45.3543C71.6913 45.8721 71.2728 46.2905 70.7551 46.2905C70.2379 46.2905 69.8188 45.8721 69.8188 45.3543C69.8188 44.8377 70.2379 44.4184 70.7551 44.4184C71.2728 44.4184 71.6913 44.8377 71.6913 45.3543Z" fill="#1CC880"/>
<path d="M74.1669 45.355C74.1669 45.8728 73.7477 46.2917 73.2296 46.2917C72.7135 46.2917 72.2939 45.8728 72.2939 45.355C72.2939 44.8387 72.7135 44.4196 73.2296 44.4196C73.7477 44.4196 74.1669 44.8387 74.1669 45.355Z" fill="#1CC880"/>
<path d="M76.6415 45.3386C76.6415 45.8552 76.2217 46.2754 75.7043 46.2754C75.1866 46.2754 74.7681 45.8552 74.7681 45.3386C74.7681 44.822 75.1866 44.402 75.7043 44.402C76.2217 44.402 76.6415 44.822 76.6415 45.3386Z" fill="#1CC880"/>
<path d="M79.1158 45.338C79.1158 45.8544 78.6967 46.274 78.1805 46.274C77.6624 46.274 77.2441 45.8544 77.2441 45.338C77.2441 44.8203 77.6624 44.4003 78.1805 44.4003C78.6967 44.4003 79.1158 44.8203 79.1158 45.338Z" fill="#1CC880"/>
<path d="M81.5907 45.3965C81.5907 45.9129 81.1719 46.3331 80.6541 46.3331C80.1371 46.3331 79.7183 45.9129 79.7183 45.3965C79.7183 44.8794 80.1371 44.4597 80.6541 44.4597C81.1719 44.4597 81.5907 44.8794 81.5907 45.3965Z" fill="#1CC880"/>
<path d="M84.0659 45.3971C84.0659 45.9148 83.6462 46.3346 83.1291 46.3346C82.6115 46.3346 82.1919 45.9148 82.1919 45.3971C82.1919 44.8805 82.6115 44.4605 83.1291 44.4605C83.6462 44.4605 84.0659 44.8805 84.0659 45.3971Z" fill="#1CC880"/>
</g>
<path d="M65.8571 3H20.1429L3 18.6151V68.0629L20.1429 83.678H65.8571L83 68.0629V18.6151L65.8571 3Z" stroke="#228B9B" stroke-width="5"/>
</svg>
